<svg viewBox="0 0 301 111" xmlns="http://www.w3.org/2000/svg" fill-rule="evenodd" clip-rule="evenodd" stroke-linejoin="round" stroke-miterlimit="2"><path fill="none" d="M.677.887h300v110.046h-300z"/><path d="M157.515 51.582l-3.36-15.861h2.079l1.668 8.632c.145.87.29 1.716.46 2.562.169.847.314 1.693.459 2.563h.096c.17-.87.363-1.74.557-2.587.193-.846.386-1.692.556-2.538l2.2-8.632h1.838l2.2 8.632.58 2.538c.194.847.387 1.717.58 2.587h.097c.145-.87.29-1.74.435-2.587.145-.846.29-1.692.46-2.538l1.668-8.632h1.934l-3.288 15.861h-2.418l-2.393-9.55c-.146-.605-.266-1.21-.412-1.79-.096-.604-.241-1.209-.362-1.813h-.097c-.12.604-.266 1.209-.387 1.813-.145.58-.29 1.185-.41 1.79l-2.346 9.55h-2.394zM177.898 51.872a5.498 5.498 0 01-2.2-.435 4.79 4.79 0 01-1.79-1.209c-.508-.508-.919-1.16-1.209-1.91-.29-.75-.435-1.62-.435-2.587 0-.967.145-1.838.46-2.587.29-.774.676-1.427 1.184-1.959a5.164 5.164 0 011.668-1.233 4.99 4.99 0 011.959-.411c.75 0 1.402.12 1.983.387a3.788 3.788 0 011.474 1.112c.411.484.702 1.064.92 1.74.217.678.314 1.427.314 2.274v.604a9.706 9.706 0 01-.073.532h-7.93c.072 1.257.483 2.249 1.16 2.974.701.75 1.62 1.112 2.756 1.112.556 0 1.088-.096 1.572-.266.46-.145.919-.386 1.354-.652l.701 1.305c-.508.315-1.088.605-1.717.847-.628.241-1.354.362-2.151.362zm-3.7-7.108h6.287c0-1.185-.242-2.104-.75-2.733-.508-.604-1.233-.918-2.152-.918a2.81 2.81 0 00-1.185.241 3.75 3.75 0 00-1.04.701c-.314.315-.555.702-.773 1.161-.193.46-.314.967-.387 1.548zM190.324 51.872c-.556 0-1.112-.145-1.692-.41a6.195 6.195 0 01-1.669-1.089h-.072l-.17 1.209h-1.595V34.367h1.982v4.69l-.048 2.128c.532-.46 1.112-.87 1.74-1.16a4.025 4.025 0 011.935-.484c.75 0 1.427.145 2.007.41a4.45 4.45 0 011.475 1.21c.387.532.677 1.16.895 1.886.193.75.29 1.571.29 2.466a8.45 8.45 0 01-.411 2.684 6.172 6.172 0 01-1.112 2.007 4.392 4.392 0 01-1.62 1.233 4.439 4.439 0 01-1.935.435zm-.338-1.668c.483 0 .943-.121 1.354-.314.41-.242.75-.532 1.064-.943.29-.387.532-.87.677-1.451.193-.58.266-1.233.266-1.959 0-.653-.049-1.233-.17-1.765-.12-.532-.29-.991-.532-1.378a3.026 3.026 0 00-.967-.87c-.41-.218-.87-.315-1.426-.315-.943 0-2.007.532-3.144 1.596v6.166c.508.46 1.016.773 1.548.943.508.193.943.29 1.33.29zM198.692 51.582V35.721h2.007v7.954h.073l6.6-7.954h2.274l-4.957 6.044 5.73 9.817h-2.248l-4.74-8.245-2.732 3.216v5.029h-2.007zM212.5 51.582V39.831h1.983v11.751H212.5zm1.015-14.169c-.386 0-.7-.12-.967-.363a1.21 1.21 0 01-.41-.918c0-.387.144-.702.41-.943.266-.218.58-.339.967-.339s.726.121.992.339c.242.241.387.556.387.943 0 .362-.145.677-.387.918a1.433 1.433 0 01-.992.363zM222.145 51.872c-.629 0-1.16-.097-1.572-.29a2.664 2.664 0 01-1.04-.798 3.239 3.239 0 01-.58-1.233c-.12-.484-.169-1.016-.169-1.596v-6.504h-1.74v-1.5l1.837-.12.242-3.288h1.668v3.288h3.167v1.62h-3.167v6.528c0 .726.145 1.282.411 1.669.242.41.725.604 1.402.604.218 0 .436-.024.677-.097a10.3 10.3 0 00.653-.217l.387 1.499c-.314.12-.677.218-1.064.29a4.39 4.39 0 01-1.112.145zM231.646 51.582V35.721h4.522c.894 0 1.692.072 2.442.241.725.17 1.354.436 1.861.774.508.363.92.846 1.21 1.45.29.605.435 1.33.435 2.201 0 .846-.145 1.572-.436 2.176a4.067 4.067 0 01-1.184 1.524c-.508.41-1.137.7-1.838.894-.725.218-1.523.314-2.394.314h-2.611v6.287h-2.007zm2.007-7.93h2.37c1.378 0 2.417-.267 3.094-.799.653-.507.992-1.33.992-2.466 0-1.136-.339-1.934-1.04-2.394-.701-.435-1.765-.652-3.143-.652h-2.273v6.31zM249.13 51.872a5.375 5.375 0 01-2.055-.41 5.027 5.027 0 01-1.741-1.21c-.508-.508-.895-1.16-1.185-1.934-.314-.75-.46-1.62-.46-2.587 0-.992.146-1.862.46-2.612.29-.773.677-1.426 1.185-1.958a5.027 5.027 0 011.74-1.21 5.375 5.375 0 012.056-.41c.725 0 1.426.145 2.08.41.652.267 1.208.678 1.716 1.21.508.532.895 1.185 1.185 1.958.314.75.46 1.62.46 2.612 0 .967-.146 1.837-.46 2.587-.29.774-.677 1.426-1.185 1.934-.508.532-1.064.943-1.717 1.21a5.497 5.497 0 01-2.08.41zm0-1.644c.508 0 .967-.12 1.378-.338a3.253 3.253 0 001.088-.92c.29-.386.508-.846.677-1.402.17-.556.242-1.16.242-1.837s-.073-1.306-.242-1.862a4.874 4.874 0 00-.677-1.427 3.648 3.648 0 00-1.088-.943c-.41-.217-.87-.314-1.378-.314-.508 0-.967.097-1.378.314-.411.242-.774.532-1.064.943-.315.411-.532.87-.701 1.427-.17.556-.242 1.185-.242 1.862s.072 1.281.242 1.837c.169.556.386 1.016.7 1.403.291.41.654.7 1.065.919.41.217.87.338 1.378.338zM257.663 51.582V39.831h1.644l.17 2.128h.072c.411-.75.895-1.33 1.475-1.765a2.963 2.963 0 011.862-.653c.46 0 .894.072 1.257.242l-.387 1.74a2.517 2.517 0 00-.532-.145 4.076 4.076 0 00-.604-.048c-.508 0-1.016.194-1.548.605-.556.41-1.015 1.112-1.426 2.103v7.544h-1.983zM269.753 51.872c-.628 0-1.16-.097-1.571-.29a2.664 2.664 0 01-1.04-.798 3.239 3.239 0 01-.58-1.233c-.121-.484-.17-1.016-.17-1.596v-6.504h-1.74v-1.5l1.837-.12.242-3.288h1.668v3.288h3.168v1.62h-3.168v6.528c0 .726.145 1.282.411 1.669.242.41.726.604 1.403.604.217 0 .435-.024.677-.097a10.3 10.3 0 00.653-.217l.387 1.499c-.315.12-.677.218-1.064.29a4.39 4.39 0 01-1.113.145zM155.92 77.776V67.645h-1.597v-1.5l1.596-.12v-1.862c0-1.209.29-2.152.847-2.853.556-.701 1.402-1.04 2.587-1.04a4.748 4.748 0 011.958.387l-.435 1.523a3.217 3.217 0 00-1.33-.29c-1.088 0-1.644.75-1.644 2.273v1.862h2.49v1.62h-2.49v10.13h-1.983zM166.968 78.066a5.375 5.375 0 01-2.055-.411 5.027 5.027 0 01-1.741-1.209c-.508-.508-.895-1.16-1.185-1.934-.314-.75-.46-1.62-.46-2.587 0-.992.146-1.862.46-2.612.29-.773.677-1.426 1.185-1.958a5.027 5.027 0 011.74-1.21 5.375 5.375 0 012.056-.41c.725 0 1.427.145 2.08.41.652.267 1.208.678 1.716 1.21.508.532.895 1.185 1.185 1.958.314.75.46 1.62.46 2.612 0 .967-.146 1.837-.46 2.587-.29.773-.677 1.426-1.185 1.934-.508.532-1.064.943-1.717 1.209a5.497 5.497 0 01-2.079.411zm0-1.644c.508 0 .967-.121 1.378-.339a3.253 3.253 0 001.088-.918c.29-.387.508-.847.677-1.403.17-.556.242-1.16.242-1.837s-.072-1.306-.242-1.862a4.874 4.874 0 00-.677-1.427 3.648 3.648 0 00-1.088-.943c-.41-.217-.87-.314-1.378-.314-.508 0-.967.097-1.378.314-.411.242-.774.532-1.064.943-.314.411-.532.87-.701 1.427-.17.556-.242 1.185-.242 1.862s.072 1.281.242 1.837c.169.556.387 1.016.7 1.403.291.41.654.7 1.065.918.41.218.87.339 1.378.339zM175.506 77.776V66.025h1.644l.169 2.128h.072c.412-.75.895-1.33 1.475-1.765a2.963 2.963 0 011.862-.653c.46 0 .895.072 1.257.242l-.386 1.74a2.517 2.517 0 00-.532-.145 4.076 4.076 0 00-.605-.048c-.508 0-1.015.193-1.547.604-.556.412-1.016 1.113-1.427 2.104v7.544h-1.982zM188.924 77.776V61.914h9.14v1.693h-7.133v4.98h6.02v1.718h-6.02v5.754h7.374v1.717h-9.381zM201.472 77.776V66.025h1.644l.17 1.692h.072c.508-.556 1.064-1.04 1.692-1.402a3.566 3.566 0 011.959-.58c.894 0 1.62.193 2.128.604.507.387.87.943 1.112 1.644.604-.677 1.233-1.233 1.862-1.62.604-.435 1.281-.628 2.006-.628 1.21 0 2.104.387 2.708 1.16.58.774.87 1.91.87 3.434v7.447h-1.982v-7.181c0-1.112-.169-1.91-.532-2.418-.362-.484-.894-.726-1.644-.726-.894 0-1.862.605-2.95 1.814v8.51h-1.982v-7.18c0-1.112-.17-1.91-.532-2.418-.363-.484-.92-.726-1.669-.726-.894 0-1.861.605-2.95 1.814v8.51h-1.982zM226.717 78.066c-.556 0-1.112-.145-1.692-.411a6.195 6.195 0 01-1.669-1.088h-.072l-.17 1.209h-1.595V60.56h1.982v4.691l-.048 2.128c.532-.46 1.112-.87 1.74-1.16a4.025 4.025 0 011.935-.484c.75 0 1.427.145 2.007.41a4.45 4.45 0 011.475 1.21c.387.532.677 1.16.895 1.886.193.75.29 1.571.29 2.466a8.45 8.45 0 01-.411 2.684 6.172 6.172 0 01-1.113 2.007 4.392 4.392 0 01-1.62 1.233 4.439 4.439 0 01-1.934.435zm-.338-1.668c.483 0 .943-.121 1.354-.315.41-.241.75-.532 1.064-.943.29-.386.531-.87.677-1.45.193-.58.265-1.233.265-1.959 0-.653-.048-1.233-.169-1.765-.12-.532-.29-.991-.532-1.378a3.026 3.026 0 00-.967-.87c-.41-.218-.87-.315-1.426-.315-.943 0-2.007.532-3.144 1.596v6.166c.508.459 1.016.773 1.548.943.508.193.943.29 1.33.29zM239.65 78.066a5.498 5.498 0 01-2.2-.435 4.79 4.79 0 01-1.789-1.21c-.507-.507-.919-1.16-1.209-1.91-.29-.749-.435-1.62-.435-2.586 0-.968.145-1.838.46-2.588.29-.773.677-1.426 1.184-1.958a5.164 5.164 0 011.669-1.233 4.99 4.99 0 011.958-.411c.75 0 1.403.12 1.983.387a3.788 3.788 0 011.475 1.112c.41.483.7 1.064.919 1.74.217.678.314 1.427.314 2.274v.604a9.706 9.706 0 01-.073.532h-7.93c.072 1.257.483 2.249 1.16 2.974.701.75 1.62 1.112 2.757 1.112.556 0 1.088-.096 1.571-.266.46-.145.919-.387 1.354-.653l.701 1.306c-.507.314-1.088.605-1.716.846-.629.242-1.354.363-2.152.363zm-3.699-7.109h6.287c0-1.184-.242-2.103-.75-2.732-.507-.604-1.233-.919-2.152-.919a2.81 2.81 0 00-1.184.242 3.75 3.75 0 00-1.04.701c-.314.315-.556.702-.774 1.161-.193.46-.314.967-.387 1.547zM250.893 78.066c-1.475 0-2.66-.532-3.53-1.596-.895-1.064-1.33-2.587-1.33-4.545 0-.943.145-1.814.435-2.563a5.925 5.925 0 011.112-1.959 4.982 4.982 0 011.62-1.233 4.439 4.439 0 011.935-.435c.677 0 1.257.12 1.765.362.507.242 1.015.58 1.523.992l-.097-2.007V60.56h2.007v17.216h-1.644l-.17-1.378h-.072c-.46.46-.991.846-1.596 1.16a3.943 3.943 0 01-1.958.508zm.435-1.668c.556 0 1.064-.145 1.547-.411.484-.266.968-.653 1.451-1.21v-6.14c-.508-.46-.991-.774-1.426-.968a4.141 4.141 0 00-1.427-.266c-.46 0-.919.097-1.306.314a3.934 3.934 0 00-1.088.92 4.41 4.41 0 00-.725 1.426 6.243 6.243 0 00-.266 1.837c0 1.427.29 2.515.846 3.313s1.354 1.185 2.394 1.185zM264.314 78.066c-1.475 0-2.66-.532-3.53-1.596-.895-1.064-1.33-2.587-1.33-4.545 0-.943.145-1.814.435-2.563a5.925 5.925 0 011.112-1.959 4.982 4.982 0 011.62-1.233 4.439 4.439 0 011.935-.435c.677 0 1.257.12 1.765.362s1.015.58 1.523.992l-.097-2.007V60.56h2.007v17.216h-1.644l-.17-1.378h-.072c-.46.46-.991.846-1.596 1.16a3.943 3.943 0 01-1.958.508zm.435-1.668c.556 0 1.064-.145 1.548-.411.483-.266.967-.653 1.45-1.21v-6.14c-.507-.46-.991-.774-1.426-.968a4.141 4.141 0 00-1.427-.266c-.46 0-.919.097-1.305.314a3.934 3.934 0 00-1.088.92 4.41 4.41 0 00-.726 1.426 6.243 6.243 0 00-.266 1.837c0 1.427.29 2.515.846 3.313.557.798 1.354 1.185 2.394 1.185zM278.485 78.066a5.498 5.498 0 01-2.2-.435 4.79 4.79 0 01-1.79-1.21c-.508-.507-.919-1.16-1.209-1.91-.29-.749-.435-1.62-.435-2.586 0-.968.145-1.838.46-2.588.29-.773.676-1.426 1.184-1.958a5.164 5.164 0 011.669-1.233 4.99 4.99 0 011.958-.411c.75 0 1.402.12 1.983.387a3.788 3.788 0 011.475 1.112c.41.483.7 1.064.918 1.74.218.678.315 1.427.315 2.274v.604a9.706 9.706 0 01-.073.532h-7.93c.072 1.257.483 2.249 1.16 2.974.701.75 1.62 1.112 2.757 1.112.556 0 1.088-.096 1.571-.266.46-.145.919-.387 1.354-.653l.701 1.306c-.507.314-1.088.605-1.716.846-.629.242-1.354.363-2.152.363zm-3.7-7.109h6.287c0-1.184-.242-2.103-.75-2.732-.507-.604-1.233-.919-2.152-.919a2.81 2.81 0 00-1.184.242 3.75 3.75 0 00-1.04.701c-.314.315-.556.702-.774 1.161-.193.46-.314.967-.387 1.547zM289.727 78.066c-1.475 0-2.66-.532-3.53-1.596-.895-1.064-1.33-2.587-1.33-4.545 0-.943.145-1.814.435-2.563a5.925 5.925 0 011.112-1.959 4.982 4.982 0 011.62-1.233 4.439 4.439 0 011.934-.435c.677 0 1.258.12 1.766.362.507.242 1.015.58 1.523.992l-.097-2.007V60.56h2.007v17.216h-1.644l-.17-1.378h-.072c-.46.46-.991.846-1.596 1.16a3.943 3.943 0 01-1.958.508zm.435-1.668c.556 0 1.064-.145 1.547-.411.484-.266.967-.653 1.451-1.21v-6.14c-.508-.46-.991-.774-1.426-.968a4.141 4.141 0 00-1.427-.266c-.46 0-.919.097-1.306.314a3.934 3.934 0 00-1.088.92 4.41 4.41 0 00-.725 1.426 6.243 6.243 0 00-.266 1.837c0 1.427.29 2.515.846 3.313s1.354 1.185 2.394 1.185z" fill-rule="nonzero"/><g><path d="M134.31 41.367l-5.46-3.133a.787.787 0 00-.782 1.365l5.46 3.133a.787.787 0 10.783-1.365zM13.497 38.22l-5.452 3.147a.788.788 0 00.786 1.363l5.452-3.147a.788.788 0 00-.786-1.363zm109.895-3.119c-1.694-.97-3.527-2.022-5.46-3.132a.787.787 0 00-.783 1.365c1.933 1.11 3.767 2.162 5.46 3.132a.787.787 0 10.783-1.365zm-98.993-3.176l-5.451 3.147a.787.787 0 10.787 1.363c1.716-.99 3.544-2.047 5.45-3.148a.787.787 0 10-.786-1.362zm88.073-3.089l-5.46-3.13a.787.787 0 10-.783 1.364l5.46 3.132a.786.786 0 10.783-1.366zM35.3 25.631l-5.452 3.147a.788.788 0 00.787 1.363l5.452-3.147a.788.788 0 00-.787-1.363zm66.25-3.057l-5.46-3.132a.787.787 0 10-.783 1.365l5.46 3.132a.787.787 0 00.782-1.365zm-55.347-3.237c-1.79 1.033-3.616 2.086-5.452 3.147a.787.787 0 00.787 1.363l5.451-3.148a.786.786 0 10-.786-1.362zm44.426-3.028l-5.46-3.132a.787.787 0 10-.783 1.365l5.46 3.132a.787.787 0 00.783-1.365zm-33.524-3.268l-5.451 3.148a.788.788 0 00.787 1.363c1.903-1.1 3.732-2.155 5.452-3.147a.787.787 0 00-.788-1.364zm22.604-2.996l-5.46-3.133a.787.787 0 10-.783 1.365l5.46 3.133a.786.786 0 00.783-1.365zm-11.7-3.298l-5.452 3.147a.787.787 0 00.787 1.363l5.451-3.147a.788.788 0 00-.787-1.363z" fill="#1a1a1a" fill-opacity=".9"/><path d="M427.43 662.962v-91.36l237.36 137.04 237.361-137.04v91.36l-237 136.795L427.43 662.962z" fill="url(#_Linear1)" transform="matrix(.27384 0 0 .27384 -110.864 -113.18)"/><ellipse cx="-1212.02" cy="2617.22" rx="3.467" ry="3.002" fill="url(#_Radial2)" transform="matrix(4.04667 -2.33634 4.67269 2.69778 -7253.81 -9849.125)"/></g><defs><radialGradient id="_Radial2" cx="0" cy="0" r="1" gradientUnits="userSpaceOnUse" gradientTransform="matrix(6.93368 0 0 6.00474 -1215.49 2617.22)"><stop offset="0" stop-color="#1593ed"/><stop offset="1" stop-color="#15b4ed"/></radialGradient><linearGradient id="_Linear1" x1="0" y1="0" x2="1" y2="0" gradientUnits="userSpaceOnUse" gradientTransform="matrix(0 -170.986 395.176 0 653.376 804.759)"><stop offset="0" stop-color="#1593ed"/><stop offset="1" stop-color="#15b4ed"/></linearGradient></defs></svg>