<?xml version="1.0" encoding="UTF-8" standalone="no"?>
<!DOCTYPE svg PUBLIC "-//W3C//DTD SVG 1.1//EN" "http://www.w3.org/Graphics/SVG/1.1/DTD/svg11.dtd">
<svg width="100%" height="100%" viewBox="0 0 301 111" version="1.1" xmlns="http://www.w3.org/2000/svg" xmlns:xlink="http://www.w3.org/1999/xlink" xml:space="preserve" xmlns:serif="http://www.serif.com/" style="fill-rule:evenodd;clip-rule:evenodd;stroke-linejoin:round;stroke-miterlimit:2;">
    <g transform="matrix(1,0,0,1,-446,-130)">
        <g id="web_Logo_Header_300x110px" transform="matrix(2.34375,0,0,0.859736,446.677,130.207)">
            <rect x="0" y="0" width="128" height="128" style="fill:none;"/>
            <g>
                <g transform="matrix(0.185982,0,0,0.318963,-218.618,-924.652)">
                    <g>
                        <g transform="matrix(55.4697,0,0,88.1726,1526.3,3083.8)">
                            <path d="M0.162,0L0.023,-0.656L0.109,-0.656L0.178,-0.299C0.184,-0.263 0.19,-0.228 0.197,-0.193C0.204,-0.158 0.21,-0.123 0.216,-0.087L0.22,-0.087C0.227,-0.123 0.235,-0.159 0.243,-0.194C0.251,-0.229 0.259,-0.264 0.266,-0.299L0.357,-0.656L0.433,-0.656L0.524,-0.299C0.532,-0.264 0.54,-0.229 0.548,-0.194C0.556,-0.159 0.564,-0.123 0.572,-0.087L0.576,-0.087C0.582,-0.123 0.588,-0.159 0.594,-0.194C0.6,-0.229 0.606,-0.264 0.613,-0.299L0.682,-0.656L0.762,-0.656L0.626,0L0.526,0L0.427,-0.395C0.421,-0.42 0.416,-0.445 0.41,-0.469C0.406,-0.494 0.4,-0.519 0.395,-0.544L0.391,-0.544C0.386,-0.519 0.38,-0.494 0.375,-0.469C0.369,-0.445 0.363,-0.42 0.358,-0.395L0.261,0L0.162,0Z" style="fill-rule:nonzero;"/>
                        </g>
                        <g transform="matrix(55.4697,0,0,88.1726,1566.57,3083.8)">
                            <path d="M0.279,0.012C0.246,0.012 0.216,0.006 0.188,-0.006C0.159,-0.017 0.135,-0.034 0.114,-0.056C0.093,-0.077 0.076,-0.104 0.064,-0.135C0.052,-0.166 0.046,-0.202 0.046,-0.242C0.046,-0.282 0.052,-0.318 0.065,-0.349C0.077,-0.381 0.093,-0.408 0.114,-0.43C0.134,-0.452 0.157,-0.469 0.183,-0.481C0.209,-0.492 0.236,-0.498 0.264,-0.498C0.295,-0.498 0.322,-0.493 0.346,-0.482C0.371,-0.471 0.391,-0.456 0.407,-0.436C0.424,-0.416 0.436,-0.392 0.445,-0.364C0.454,-0.336 0.458,-0.305 0.458,-0.27C0.458,-0.261 0.458,-0.253 0.458,-0.245C0.457,-0.236 0.456,-0.229 0.455,-0.223L0.127,-0.223C0.13,-0.171 0.147,-0.13 0.175,-0.1C0.204,-0.069 0.242,-0.054 0.289,-0.054C0.312,-0.054 0.334,-0.058 0.354,-0.065C0.373,-0.071 0.392,-0.081 0.41,-0.092L0.439,-0.038C0.418,-0.025 0.394,-0.013 0.368,-0.003C0.342,0.007 0.312,0.012 0.279,0.012ZM0.126,-0.282L0.386,-0.282C0.386,-0.331 0.376,-0.369 0.355,-0.395C0.334,-0.42 0.304,-0.433 0.266,-0.433C0.249,-0.433 0.232,-0.43 0.217,-0.423C0.201,-0.416 0.187,-0.406 0.174,-0.394C0.161,-0.381 0.151,-0.365 0.142,-0.346C0.134,-0.327 0.129,-0.306 0.126,-0.282Z" style="fill-rule:nonzero;"/>
                        </g>
                        <g transform="matrix(55.4697,0,0,88.1726,1594.08,3083.8)">
                            <path d="M0.297,0.012C0.274,0.012 0.251,0.006 0.227,-0.005C0.202,-0.016 0.179,-0.031 0.158,-0.05L0.155,-0.05L0.148,0L0.082,0L0.082,-0.712L0.164,-0.712L0.164,-0.518L0.162,-0.43C0.184,-0.449 0.208,-0.466 0.234,-0.478C0.26,-0.492 0.287,-0.498 0.314,-0.498C0.345,-0.498 0.373,-0.492 0.397,-0.481C0.421,-0.469 0.441,-0.452 0.458,-0.431C0.474,-0.409 0.486,-0.383 0.495,-0.353C0.503,-0.322 0.507,-0.288 0.507,-0.251C0.507,-0.21 0.501,-0.173 0.49,-0.14C0.479,-0.107 0.463,-0.08 0.444,-0.057C0.425,-0.034 0.402,-0.017 0.377,-0.006C0.352,0.006 0.325,0.012 0.297,0.012ZM0.283,-0.057C0.303,-0.057 0.322,-0.062 0.339,-0.07C0.356,-0.08 0.37,-0.092 0.383,-0.109C0.395,-0.125 0.405,-0.145 0.411,-0.169C0.419,-0.193 0.422,-0.22 0.422,-0.25C0.422,-0.277 0.42,-0.301 0.415,-0.323C0.41,-0.345 0.403,-0.364 0.393,-0.38C0.382,-0.395 0.369,-0.407 0.353,-0.416C0.336,-0.425 0.317,-0.429 0.294,-0.429C0.255,-0.429 0.211,-0.407 0.164,-0.363L0.164,-0.108C0.185,-0.089 0.206,-0.076 0.228,-0.069C0.249,-0.061 0.267,-0.057 0.283,-0.057Z" style="fill-rule:nonzero;"/>
                        </g>
                        <g transform="matrix(55.4697,0,0,88.1726,1624.76,3083.8)">
                            <path d="M0.09,0L0.09,-0.656L0.173,-0.656L0.173,-0.327L0.176,-0.327L0.449,-0.656L0.543,-0.656L0.338,-0.406L0.575,0L0.482,0L0.286,-0.341L0.173,-0.208L0.173,0L0.09,0Z" style="fill-rule:nonzero;"/>
                        </g>
                        <g transform="matrix(55.4697,0,0,88.1726,1656.88,3083.8)">
                            <path d="M0.082,0L0.082,-0.486L0.164,-0.486L0.164,0L0.082,0ZM0.124,-0.586C0.108,-0.586 0.095,-0.591 0.084,-0.601C0.073,-0.611 0.067,-0.624 0.067,-0.639C0.067,-0.655 0.073,-0.668 0.084,-0.678C0.095,-0.687 0.108,-0.692 0.124,-0.692C0.14,-0.692 0.154,-0.687 0.165,-0.678C0.175,-0.668 0.181,-0.655 0.181,-0.639C0.181,-0.624 0.175,-0.611 0.165,-0.601C0.154,-0.591 0.14,-0.586 0.124,-0.586Z" style="fill-rule:nonzero;"/>
                        </g>
                        <g transform="matrix(55.4697,0,0,88.1726,1670.52,3083.8)">
                            <path d="M0.235,0.012C0.209,0.012 0.187,0.008 0.17,0C0.152,-0.008 0.138,-0.019 0.127,-0.033C0.116,-0.047 0.108,-0.064 0.103,-0.084C0.098,-0.104 0.096,-0.126 0.096,-0.15L0.096,-0.419L0.024,-0.419L0.024,-0.481L0.1,-0.486L0.11,-0.622L0.179,-0.622L0.179,-0.486L0.31,-0.486L0.31,-0.419L0.179,-0.419L0.179,-0.149C0.179,-0.119 0.185,-0.096 0.196,-0.08C0.206,-0.063 0.226,-0.055 0.254,-0.055C0.263,-0.055 0.272,-0.056 0.282,-0.059C0.292,-0.062 0.301,-0.065 0.309,-0.068L0.325,-0.006C0.312,-0.001 0.297,0.003 0.281,0.006C0.266,0.01 0.25,0.012 0.235,0.012Z" style="fill-rule:nonzero;"/>
                        </g>
                        <g transform="matrix(55.4697,0,0,88.1726,1700.36,3083.8)">
                            <path d="M0.09,0L0.09,-0.656L0.277,-0.656C0.314,-0.656 0.347,-0.653 0.378,-0.646C0.408,-0.639 0.434,-0.628 0.455,-0.614C0.476,-0.599 0.493,-0.579 0.505,-0.554C0.517,-0.529 0.523,-0.499 0.523,-0.463C0.523,-0.428 0.517,-0.398 0.505,-0.373C0.494,-0.348 0.477,-0.327 0.456,-0.31C0.435,-0.293 0.409,-0.281 0.38,-0.273C0.35,-0.264 0.317,-0.26 0.281,-0.26L0.173,-0.26L0.173,0L0.09,0ZM0.173,-0.328L0.271,-0.328C0.328,-0.328 0.371,-0.339 0.399,-0.361C0.426,-0.382 0.44,-0.416 0.44,-0.463C0.44,-0.51 0.426,-0.543 0.397,-0.562C0.368,-0.58 0.324,-0.589 0.267,-0.589L0.173,-0.589L0.173,-0.328Z" style="fill-rule:nonzero;"/>
                        </g>
                        <g transform="matrix(55.4697,0,0,88.1726,1730.43,3083.8)">
                            <path d="M0.271,0.012C0.241,0.012 0.213,0.006 0.186,-0.005C0.159,-0.016 0.135,-0.033 0.114,-0.055C0.093,-0.076 0.077,-0.103 0.065,-0.135C0.052,-0.166 0.046,-0.202 0.046,-0.242C0.046,-0.283 0.052,-0.319 0.065,-0.35C0.077,-0.382 0.093,-0.409 0.114,-0.431C0.135,-0.453 0.159,-0.47 0.186,-0.481C0.213,-0.492 0.241,-0.498 0.271,-0.498C0.301,-0.498 0.33,-0.492 0.357,-0.481C0.384,-0.47 0.407,-0.453 0.428,-0.431C0.449,-0.409 0.465,-0.382 0.477,-0.35C0.49,-0.319 0.496,-0.283 0.496,-0.242C0.496,-0.202 0.49,-0.166 0.477,-0.135C0.465,-0.103 0.449,-0.076 0.428,-0.055C0.407,-0.033 0.384,-0.016 0.357,-0.005C0.33,0.006 0.301,0.012 0.271,0.012ZM0.271,-0.056C0.292,-0.056 0.311,-0.061 0.328,-0.07C0.345,-0.079 0.36,-0.091 0.373,-0.108C0.385,-0.124 0.394,-0.143 0.401,-0.166C0.408,-0.189 0.411,-0.214 0.411,-0.242C0.411,-0.27 0.408,-0.296 0.401,-0.319C0.394,-0.342 0.385,-0.361 0.373,-0.378C0.36,-0.395 0.345,-0.407 0.328,-0.417C0.311,-0.426 0.292,-0.43 0.271,-0.43C0.25,-0.43 0.231,-0.426 0.214,-0.417C0.197,-0.407 0.182,-0.395 0.17,-0.378C0.157,-0.361 0.148,-0.342 0.141,-0.319C0.134,-0.296 0.131,-0.27 0.131,-0.242C0.131,-0.214 0.134,-0.189 0.141,-0.166C0.148,-0.143 0.157,-0.124 0.17,-0.108C0.182,-0.091 0.197,-0.079 0.214,-0.07C0.231,-0.061 0.25,-0.056 0.271,-0.056Z" style="fill-rule:nonzero;"/>
                        </g>
                        <g transform="matrix(55.4697,0,0,88.1726,1760.49,3083.8)">
                            <path d="M0.082,0L0.082,-0.486L0.15,-0.486L0.157,-0.398L0.16,-0.398C0.177,-0.429 0.197,-0.453 0.221,-0.471C0.244,-0.489 0.27,-0.498 0.298,-0.498C0.317,-0.498 0.335,-0.495 0.35,-0.488L0.334,-0.416C0.326,-0.419 0.319,-0.421 0.312,-0.422C0.305,-0.423 0.297,-0.424 0.287,-0.424C0.266,-0.424 0.245,-0.416 0.223,-0.399C0.2,-0.382 0.181,-0.353 0.164,-0.312L0.164,0L0.082,0Z" style="fill-rule:nonzero;"/>
                        </g>
                        <g transform="matrix(55.4697,0,0,88.1726,1779.74,3083.8)">
                            <path d="M0.235,0.012C0.209,0.012 0.187,0.008 0.17,0C0.152,-0.008 0.138,-0.019 0.127,-0.033C0.116,-0.047 0.108,-0.064 0.103,-0.084C0.098,-0.104 0.096,-0.126 0.096,-0.15L0.096,-0.419L0.024,-0.419L0.024,-0.481L0.1,-0.486L0.11,-0.622L0.179,-0.622L0.179,-0.486L0.31,-0.486L0.31,-0.419L0.179,-0.419L0.179,-0.149C0.179,-0.119 0.185,-0.096 0.196,-0.08C0.206,-0.063 0.226,-0.055 0.254,-0.055C0.263,-0.055 0.272,-0.056 0.282,-0.059C0.292,-0.062 0.301,-0.065 0.309,-0.068L0.325,-0.006C0.312,-0.001 0.297,0.003 0.281,0.006C0.266,0.01 0.25,0.012 0.235,0.012Z" style="fill-rule:nonzero;"/>
                        </g>
                        <g transform="matrix(55.4697,0,0,88.1726,1526.3,3179.32)">
                            <path d="M0.096,0L0.096,-0.419L0.03,-0.419L0.03,-0.481L0.096,-0.486L0.096,-0.563C0.096,-0.613 0.108,-0.652 0.131,-0.681C0.154,-0.71 0.189,-0.724 0.238,-0.724C0.253,-0.724 0.268,-0.723 0.281,-0.72C0.295,-0.717 0.308,-0.713 0.319,-0.708L0.301,-0.645C0.283,-0.653 0.265,-0.657 0.246,-0.657C0.201,-0.657 0.178,-0.626 0.178,-0.563L0.178,-0.486L0.281,-0.486L0.281,-0.419L0.178,-0.419L0.178,0L0.096,0Z" style="fill-rule:nonzero;"/>
                        </g>
                        <g transform="matrix(55.4697,0,0,88.1726,1541.94,3179.32)">
                            <path d="M0.271,0.012C0.241,0.012 0.213,0.006 0.186,-0.005C0.159,-0.016 0.135,-0.033 0.114,-0.055C0.093,-0.076 0.077,-0.103 0.065,-0.135C0.052,-0.166 0.046,-0.202 0.046,-0.242C0.046,-0.283 0.052,-0.319 0.065,-0.35C0.077,-0.382 0.093,-0.409 0.114,-0.431C0.135,-0.453 0.159,-0.47 0.186,-0.481C0.213,-0.492 0.241,-0.498 0.271,-0.498C0.301,-0.498 0.33,-0.492 0.357,-0.481C0.384,-0.47 0.407,-0.453 0.428,-0.431C0.449,-0.409 0.465,-0.382 0.477,-0.35C0.49,-0.319 0.496,-0.283 0.496,-0.242C0.496,-0.202 0.49,-0.166 0.477,-0.135C0.465,-0.103 0.449,-0.076 0.428,-0.055C0.407,-0.033 0.384,-0.016 0.357,-0.005C0.33,0.006 0.301,0.012 0.271,0.012ZM0.271,-0.056C0.292,-0.056 0.311,-0.061 0.328,-0.07C0.345,-0.079 0.36,-0.091 0.373,-0.108C0.385,-0.124 0.394,-0.143 0.401,-0.166C0.408,-0.189 0.411,-0.214 0.411,-0.242C0.411,-0.27 0.408,-0.296 0.401,-0.319C0.394,-0.342 0.385,-0.361 0.373,-0.378C0.36,-0.395 0.345,-0.407 0.328,-0.417C0.311,-0.426 0.292,-0.43 0.271,-0.43C0.25,-0.43 0.231,-0.426 0.214,-0.417C0.197,-0.407 0.182,-0.395 0.17,-0.378C0.157,-0.361 0.148,-0.342 0.141,-0.319C0.134,-0.296 0.131,-0.27 0.131,-0.242C0.131,-0.214 0.134,-0.189 0.141,-0.166C0.148,-0.143 0.157,-0.124 0.17,-0.108C0.182,-0.091 0.197,-0.079 0.214,-0.07C0.231,-0.061 0.25,-0.056 0.271,-0.056Z" style="fill-rule:nonzero;"/>
                        </g>
                        <g transform="matrix(55.4697,0,0,88.1726,1572.01,3179.32)">
                            <path d="M0.082,0L0.082,-0.486L0.15,-0.486L0.157,-0.398L0.16,-0.398C0.177,-0.429 0.197,-0.453 0.221,-0.471C0.244,-0.489 0.27,-0.498 0.298,-0.498C0.317,-0.498 0.335,-0.495 0.35,-0.488L0.334,-0.416C0.326,-0.419 0.319,-0.421 0.312,-0.422C0.305,-0.423 0.297,-0.424 0.287,-0.424C0.266,-0.424 0.245,-0.416 0.223,-0.399C0.2,-0.382 0.181,-0.353 0.164,-0.312L0.164,0L0.082,0Z" style="fill-rule:nonzero;"/>
                        </g>
                        <g transform="matrix(55.4697,0,0,88.1726,1602.35,3179.32)">
                            <path d="M0.09,0L0.09,-0.656L0.468,-0.656L0.468,-0.586L0.173,-0.586L0.173,-0.38L0.422,-0.38L0.422,-0.309L0.173,-0.309L0.173,-0.071L0.478,-0.071L0.478,0L0.09,0Z" style="fill-rule:nonzero;"/>
                        </g>
                        <g transform="matrix(55.4697,0,0,88.1726,1631.58,3179.32)">
                            <path d="M0.082,0L0.082,-0.486L0.15,-0.486L0.157,-0.416L0.16,-0.416C0.181,-0.439 0.204,-0.459 0.23,-0.474C0.255,-0.49 0.282,-0.498 0.311,-0.498C0.348,-0.498 0.378,-0.49 0.399,-0.473C0.42,-0.457 0.435,-0.434 0.445,-0.405C0.47,-0.433 0.496,-0.456 0.522,-0.472C0.547,-0.49 0.575,-0.498 0.605,-0.498C0.655,-0.498 0.692,-0.482 0.717,-0.45C0.741,-0.418 0.753,-0.371 0.753,-0.308L0.753,0L0.671,0L0.671,-0.297C0.671,-0.343 0.664,-0.376 0.649,-0.397C0.634,-0.417 0.612,-0.427 0.581,-0.427C0.544,-0.427 0.504,-0.402 0.459,-0.352L0.459,0L0.377,0L0.377,-0.297C0.377,-0.343 0.37,-0.376 0.355,-0.397C0.34,-0.417 0.317,-0.427 0.286,-0.427C0.249,-0.427 0.209,-0.402 0.164,-0.352L0.164,0L0.082,0Z" style="fill-rule:nonzero;"/>
                        </g>
                        <g transform="matrix(55.4697,0,0,88.1726,1677.57,3179.32)">
                            <path d="M0.297,0.012C0.274,0.012 0.251,0.006 0.227,-0.005C0.202,-0.016 0.179,-0.031 0.158,-0.05L0.155,-0.05L0.148,0L0.082,0L0.082,-0.712L0.164,-0.712L0.164,-0.518L0.162,-0.43C0.184,-0.449 0.208,-0.466 0.234,-0.478C0.26,-0.492 0.287,-0.498 0.314,-0.498C0.345,-0.498 0.373,-0.492 0.397,-0.481C0.421,-0.469 0.441,-0.452 0.458,-0.431C0.474,-0.409 0.486,-0.383 0.495,-0.353C0.503,-0.322 0.507,-0.288 0.507,-0.251C0.507,-0.21 0.501,-0.173 0.49,-0.14C0.479,-0.107 0.463,-0.08 0.444,-0.057C0.425,-0.034 0.402,-0.017 0.377,-0.006C0.352,0.006 0.325,0.012 0.297,0.012ZM0.283,-0.057C0.303,-0.057 0.322,-0.062 0.339,-0.07C0.356,-0.08 0.37,-0.092 0.383,-0.109C0.395,-0.125 0.405,-0.145 0.411,-0.169C0.419,-0.193 0.422,-0.22 0.422,-0.25C0.422,-0.277 0.42,-0.301 0.415,-0.323C0.41,-0.345 0.403,-0.364 0.393,-0.38C0.382,-0.395 0.369,-0.407 0.353,-0.416C0.336,-0.425 0.317,-0.429 0.294,-0.429C0.255,-0.429 0.211,-0.407 0.164,-0.363L0.164,-0.108C0.185,-0.089 0.206,-0.076 0.228,-0.069C0.249,-0.061 0.267,-0.057 0.283,-0.057Z" style="fill-rule:nonzero;"/>
                        </g>
                        <g transform="matrix(55.4697,0,0,88.1726,1708.24,3179.32)">
                            <path d="M0.279,0.012C0.246,0.012 0.216,0.006 0.188,-0.006C0.159,-0.017 0.135,-0.034 0.114,-0.056C0.093,-0.077 0.076,-0.104 0.064,-0.135C0.052,-0.166 0.046,-0.202 0.046,-0.242C0.046,-0.282 0.052,-0.318 0.065,-0.349C0.077,-0.381 0.093,-0.408 0.114,-0.43C0.134,-0.452 0.157,-0.469 0.183,-0.481C0.209,-0.492 0.236,-0.498 0.264,-0.498C0.295,-0.498 0.322,-0.493 0.346,-0.482C0.371,-0.471 0.391,-0.456 0.407,-0.436C0.424,-0.416 0.436,-0.392 0.445,-0.364C0.454,-0.336 0.458,-0.305 0.458,-0.27C0.458,-0.261 0.458,-0.253 0.458,-0.245C0.457,-0.236 0.456,-0.229 0.455,-0.223L0.127,-0.223C0.13,-0.171 0.147,-0.13 0.175,-0.1C0.204,-0.069 0.242,-0.054 0.289,-0.054C0.312,-0.054 0.334,-0.058 0.354,-0.065C0.373,-0.071 0.392,-0.081 0.41,-0.092L0.439,-0.038C0.418,-0.025 0.394,-0.013 0.368,-0.003C0.342,0.007 0.312,0.012 0.279,0.012ZM0.126,-0.282L0.386,-0.282C0.386,-0.331 0.376,-0.369 0.355,-0.395C0.334,-0.42 0.304,-0.433 0.266,-0.433C0.249,-0.433 0.232,-0.43 0.217,-0.423C0.201,-0.416 0.187,-0.406 0.174,-0.394C0.161,-0.381 0.151,-0.365 0.142,-0.346C0.134,-0.327 0.129,-0.306 0.126,-0.282Z" style="fill-rule:nonzero;"/>
                        </g>
                        <g transform="matrix(55.4697,0,0,88.1726,1735.75,3179.32)">
                            <path d="M0.248,0.012C0.187,0.012 0.138,-0.01 0.102,-0.054C0.065,-0.098 0.047,-0.161 0.047,-0.242C0.047,-0.281 0.053,-0.317 0.065,-0.348C0.076,-0.38 0.092,-0.407 0.111,-0.429C0.13,-0.451 0.153,-0.468 0.178,-0.48C0.203,-0.492 0.23,-0.498 0.258,-0.498C0.286,-0.498 0.31,-0.493 0.331,-0.483C0.352,-0.473 0.373,-0.459 0.394,-0.442L0.39,-0.525L0.39,-0.712L0.473,-0.712L0.473,0L0.405,0L0.398,-0.057L0.395,-0.057C0.376,-0.038 0.354,-0.022 0.329,-0.009C0.304,0.005 0.277,0.012 0.248,0.012ZM0.266,-0.057C0.289,-0.057 0.31,-0.063 0.33,-0.074C0.35,-0.085 0.37,-0.101 0.39,-0.124L0.39,-0.378C0.369,-0.397 0.349,-0.41 0.331,-0.418C0.312,-0.425 0.292,-0.429 0.272,-0.429C0.253,-0.429 0.234,-0.425 0.218,-0.416C0.201,-0.406 0.186,-0.394 0.173,-0.378C0.16,-0.361 0.15,-0.342 0.143,-0.319C0.136,-0.296 0.132,-0.271 0.132,-0.243C0.132,-0.184 0.144,-0.139 0.167,-0.106C0.19,-0.073 0.223,-0.057 0.266,-0.057Z" style="fill-rule:nonzero;"/>
                        </g>
                        <g transform="matrix(55.4697,0,0,88.1726,1766.54,3179.32)">
                            <path d="M0.248,0.012C0.187,0.012 0.138,-0.01 0.102,-0.054C0.065,-0.098 0.047,-0.161 0.047,-0.242C0.047,-0.281 0.053,-0.317 0.065,-0.348C0.076,-0.38 0.092,-0.407 0.111,-0.429C0.13,-0.451 0.153,-0.468 0.178,-0.48C0.203,-0.492 0.23,-0.498 0.258,-0.498C0.286,-0.498 0.31,-0.493 0.331,-0.483C0.352,-0.473 0.373,-0.459 0.394,-0.442L0.39,-0.525L0.39,-0.712L0.473,-0.712L0.473,0L0.405,0L0.398,-0.057L0.395,-0.057C0.376,-0.038 0.354,-0.022 0.329,-0.009C0.304,0.005 0.277,0.012 0.248,0.012ZM0.266,-0.057C0.289,-0.057 0.31,-0.063 0.33,-0.074C0.35,-0.085 0.37,-0.101 0.39,-0.124L0.39,-0.378C0.369,-0.397 0.349,-0.41 0.331,-0.418C0.312,-0.425 0.292,-0.429 0.272,-0.429C0.253,-0.429 0.234,-0.425 0.218,-0.416C0.201,-0.406 0.186,-0.394 0.173,-0.378C0.16,-0.361 0.15,-0.342 0.143,-0.319C0.136,-0.296 0.132,-0.271 0.132,-0.243C0.132,-0.184 0.144,-0.139 0.167,-0.106C0.19,-0.073 0.223,-0.057 0.266,-0.057Z" style="fill-rule:nonzero;"/>
                        </g>
                        <g transform="matrix(55.4697,0,0,88.1726,1797.33,3179.32)">
                            <path d="M0.279,0.012C0.246,0.012 0.216,0.006 0.188,-0.006C0.159,-0.017 0.135,-0.034 0.114,-0.056C0.093,-0.077 0.076,-0.104 0.064,-0.135C0.052,-0.166 0.046,-0.202 0.046,-0.242C0.046,-0.282 0.052,-0.318 0.065,-0.349C0.077,-0.381 0.093,-0.408 0.114,-0.43C0.134,-0.452 0.157,-0.469 0.183,-0.481C0.209,-0.492 0.236,-0.498 0.264,-0.498C0.295,-0.498 0.322,-0.493 0.346,-0.482C0.371,-0.471 0.391,-0.456 0.407,-0.436C0.424,-0.416 0.436,-0.392 0.445,-0.364C0.454,-0.336 0.458,-0.305 0.458,-0.27C0.458,-0.261 0.458,-0.253 0.458,-0.245C0.457,-0.236 0.456,-0.229 0.455,-0.223L0.127,-0.223C0.13,-0.171 0.147,-0.13 0.175,-0.1C0.204,-0.069 0.242,-0.054 0.289,-0.054C0.312,-0.054 0.334,-0.058 0.354,-0.065C0.373,-0.071 0.392,-0.081 0.41,-0.092L0.439,-0.038C0.418,-0.025 0.394,-0.013 0.368,-0.003C0.342,0.007 0.312,0.012 0.279,0.012ZM0.126,-0.282L0.386,-0.282C0.386,-0.331 0.376,-0.369 0.355,-0.395C0.334,-0.42 0.304,-0.433 0.266,-0.433C0.249,-0.433 0.232,-0.43 0.217,-0.423C0.201,-0.416 0.187,-0.406 0.174,-0.394C0.161,-0.381 0.151,-0.365 0.142,-0.346C0.134,-0.327 0.129,-0.306 0.126,-0.282Z" style="fill-rule:nonzero;"/>
                        </g>
                        <g transform="matrix(55.4697,0,0,88.1726,1824.84,3179.32)">
                            <path d="M0.248,0.012C0.187,0.012 0.138,-0.01 0.102,-0.054C0.065,-0.098 0.047,-0.161 0.047,-0.242C0.047,-0.281 0.053,-0.317 0.065,-0.348C0.076,-0.38 0.092,-0.407 0.111,-0.429C0.13,-0.451 0.153,-0.468 0.178,-0.48C0.203,-0.492 0.23,-0.498 0.258,-0.498C0.286,-0.498 0.31,-0.493 0.331,-0.483C0.352,-0.473 0.373,-0.459 0.394,-0.442L0.39,-0.525L0.39,-0.712L0.473,-0.712L0.473,0L0.405,0L0.398,-0.057L0.395,-0.057C0.376,-0.038 0.354,-0.022 0.329,-0.009C0.304,0.005 0.277,0.012 0.248,0.012ZM0.266,-0.057C0.289,-0.057 0.31,-0.063 0.33,-0.074C0.35,-0.085 0.37,-0.101 0.39,-0.124L0.39,-0.378C0.369,-0.397 0.349,-0.41 0.331,-0.418C0.312,-0.425 0.292,-0.429 0.272,-0.429C0.253,-0.429 0.234,-0.425 0.218,-0.416C0.201,-0.406 0.186,-0.394 0.173,-0.378C0.16,-0.361 0.15,-0.342 0.143,-0.319C0.136,-0.296 0.132,-0.271 0.132,-0.243C0.132,-0.184 0.144,-0.139 0.167,-0.106C0.19,-0.073 0.223,-0.057 0.266,-0.057Z" style="fill-rule:nonzero;"/>
                        </g>
                    </g>
                </g>
                <g transform="matrix(0.0772176,0,0,0.210505,-11.5163,-45.1851)">
                    <g transform="matrix(5.46155,0,0,5.46155,-590.458,-737.63)">
                        <path d="M270.618,215.315C270.618,215.315 268.524,214.114 265.094,212.146C264.713,211.928 264.226,212.06 264.008,212.441C263.789,212.822 263.921,213.309 264.302,213.527C267.731,215.495 269.826,216.696 269.826,216.696C270.207,216.915 270.694,216.783 270.913,216.402C271.131,216.021 270.999,215.534 270.618,215.315ZM148.388,212.132C146.103,213.451 144.217,214.54 142.872,215.316C142.492,215.536 142.361,216.023 142.581,216.404C142.801,216.784 143.288,216.915 143.668,216.695C145.013,215.919 146.899,214.83 149.184,213.511C149.564,213.291 149.695,212.804 149.475,212.423C149.255,212.043 148.768,211.912 148.388,212.132ZM259.57,208.977C257.857,207.995 256.002,206.931 254.046,205.808C253.665,205.59 253.178,205.722 252.959,206.103C252.741,206.484 252.873,206.971 253.254,207.189C255.21,208.312 257.065,209.376 258.778,210.358C259.159,210.577 259.646,210.445 259.865,210.064C260.083,209.683 259.951,209.196 259.57,208.977ZM159.418,205.764C157.489,206.877 155.639,207.946 153.903,208.948C153.522,209.167 153.392,209.655 153.611,210.035C153.831,210.416 154.318,210.546 154.699,210.327C156.435,209.324 158.285,208.256 160.214,207.142C160.595,206.923 160.725,206.435 160.506,206.055C160.286,205.674 159.799,205.544 159.418,205.764ZM248.522,202.639C246.718,201.605 244.868,200.543 242.998,199.471C242.617,199.252 242.13,199.384 241.911,199.765C241.693,200.146 241.825,200.633 242.206,200.852C244.076,201.924 245.926,202.986 247.73,204.02C248.111,204.239 248.598,204.107 248.816,203.726C249.035,203.345 248.903,202.858 248.522,202.639ZM170.449,199.395C168.589,200.468 166.743,201.534 164.933,202.579C164.553,202.799 164.422,203.286 164.642,203.667C164.862,204.047 165.349,204.178 165.729,203.958C167.539,202.913 169.386,201.847 171.245,200.774C171.625,200.554 171.756,200.067 171.536,199.686C171.316,199.306 170.829,199.175 170.449,199.395ZM237.474,196.302C235.618,195.237 233.769,194.176 231.95,193.133C231.569,192.914 231.082,193.046 230.863,193.427C230.645,193.808 230.777,194.295 231.158,194.514C232.976,195.557 234.826,196.618 236.682,197.683C237.063,197.901 237.55,197.769 237.768,197.388C237.987,197.007 237.855,196.52 237.474,196.302ZM181.479,193.027C179.668,194.072 177.821,195.138 175.964,196.211C175.583,196.431 175.453,196.918 175.672,197.298C175.892,197.679 176.379,197.809 176.76,197.59C178.617,196.517 180.464,195.451 182.275,194.405C182.656,194.186 182.786,193.699 182.566,193.318C182.347,192.938 181.859,192.807 181.479,193.027ZM226.426,189.964C224.502,188.86 222.649,187.797 220.902,186.795C220.521,186.576 220.034,186.708 219.815,187.089C219.597,187.47 219.729,187.957 220.11,188.176C221.856,189.178 223.709,190.241 225.634,191.345C226.015,191.563 226.502,191.431 226.72,191.05C226.939,190.669 226.807,190.182 226.426,189.964ZM192.509,186.658C190.77,187.662 188.92,188.73 186.994,189.842C186.614,190.062 186.483,190.549 186.703,190.93C186.922,191.31 187.41,191.441 187.79,191.221C189.716,190.109 191.566,189.041 193.306,188.037C193.686,187.817 193.817,187.33 193.597,186.95C193.377,186.569 192.89,186.439 192.509,186.658ZM215.378,183.626C213.156,182.351 211.273,181.271 209.854,180.457C209.473,180.238 208.986,180.37 208.767,180.751C208.549,181.132 208.681,181.619 209.062,181.838C210.481,182.652 212.364,183.732 214.586,185.007C214.967,185.225 215.454,185.094 215.672,184.712C215.891,184.331 215.759,183.844 215.378,183.626ZM203.54,180.29C202.156,181.089 200.274,182.176 198.025,183.474C197.644,183.694 197.514,184.181 197.733,184.561C197.953,184.942 198.44,185.072 198.821,184.853C201.07,183.554 202.952,182.468 204.336,181.669C204.716,181.449 204.847,180.962 204.627,180.581C204.408,180.201 203.92,180.07 203.54,180.29Z" style="fill:rgb(26,26,26);fill-opacity:0.9;"/>
                    </g>
                    <g transform="matrix(1.51313,0,0,1.51313,-467.179,-415.631)">
                        <path d="M427.43,662.962L427.43,571.602L664.79,708.642L902.151,571.602L902.151,662.962L665.151,799.757L427.43,662.962Z" style="fill:rgb(26,26,26);"/>
                    </g>
                    <g transform="matrix(22.3599,-12.9095,25.819,14.9066,-39935.6,-54211.7)">
                        <ellipse cx="-1212.02" cy="2617.22" rx="3.467" ry="3.002" style="fill:rgb(26,26,26);"/>
                    </g>
                </g>
            </g>
        </g>
    </g>
</svg>
