<svg xmlns="http://www.w3.org/2000/svg" width="214.5" height="190.194" viewBox="0 0 214.5 190.194">
  <g id="illustration-community" transform="translate(-134.5 -3874)">
    <rect id="Rectangle_230" data-name="Rectangle 230" width="119" height="119" rx="59.5" transform="translate(201 3888)" fill="#fff"/>
    <g id="Group_784" data-name="Group 784" transform="translate(-1311 4)">
      <path id="Path_492" data-name="Path 492" d="M19192,4056.27V3917h38.039" transform="translate(-17621 -3)" fill="none" stroke="#000" stroke-width="1" stroke-dasharray="5"/>
      <path id="Path_493" data-name="Path 493" d="M19253.5,3971h-166.771v54.916" transform="translate(-17598 -13)" fill="none" stroke="#000" stroke-width="1" stroke-dasharray="5"/>
      <path id="Path_494" data-name="Path 494" d="M19133.5,3947h114.756" transform="translate(-17677.256 -3)" fill="none" stroke="#000" stroke-width="1" stroke-dasharray="5"/>
      <g id="Path_491" data-name="Path 491" transform="translate(1563.5 4047.5)" fill="#fff">
        <path d="M 7.499910354614258 12.11647701263428 L 7.249900341033936 11.97212696075439 L -0.2500095367431641 7.64191722869873 L -0.4999995231628418 7.49757719039917 L -0.4999995231628418 7.208907127380371 L -0.4999995231628418 4.322106838226318 L -0.4999995231628418 4.032947063446045 L -0.2493695169687271 3.888726949691772 L 7.261950492858887 -0.4333829879760742 L 7.511690616607666 -0.5770829916000366 L 7.761250495910645 -0.4330529868602753 L 15.2499303817749 3.888876914978027 L 15.5 4.033196926116943 L 15.5 4.321927070617676 L 15.5 7.20872688293457 L 15.5 7.497396945953369 L 15.25001049041748 7.64173698425293 L 7.74992036819458 11.97212696075439 L 7.499910354614258 12.11647701263428 Z" stroke="none"/>
        <path d="M 7.5113205909729 -2.86102294921875e-06 L 9.5367431640625e-07 4.322106838226318 L 9.5367431640625e-07 7.208907127380371 L 7.499910354614258 11.53911685943604 L 15 7.20872688293457 L 15 4.321927070617676 L 7.5113205909729 -2.86102294921875e-06 M 7.512060642242432 -1.154163360595703 L 16 3.744466781616211 L 16 7.786067008972168 L 7.499910354614258 12.69382667541504 L -0.9999990463256836 7.786247253417969 L -0.9999990463256836 3.743786811828613 L 7.512060642242432 -1.154163360595703 Z" stroke="none" fill="#000"/>
      </g>
      <g id="Path_495" data-name="Path 495" transform="translate(1446.5 3938)">
        <path d="M 7.499910354614258 12.11647701263428 L 7.249900341033936 11.97212696075439 L -0.2500095367431641 7.64191722869873 L -0.4999995231628418 7.49757719039917 L -0.4999995231628418 7.208907127380371 L -0.4999995231628418 4.322106838226318 L -0.4999995231628418 4.032947063446045 L -0.2493695169687271 3.888726949691772 L 7.261950492858887 -0.4333829879760742 L 7.511690616607666 -0.5770829916000366 L 7.761250495910645 -0.4330529868602753 L 15.2499303817749 3.888876914978027 L 15.5 4.033196926116943 L 15.5 4.321927070617676 L 15.5 7.20872688293457 L 15.5 7.497396945953369 L 15.25001049041748 7.64173698425293 L 7.74992036819458 11.97212696075439 L 7.499910354614258 12.11647701263428 Z" stroke="none"/>
        <path d="M 7.5113205909729 -2.86102294921875e-06 L 9.5367431640625e-07 4.322106838226318 L 9.5367431640625e-07 7.208907127380371 L 7.499910354614258 11.53911685943604 L 15 7.20872688293457 L 15 4.321927070617676 L 7.5113205909729 -2.86102294921875e-06 M 7.512060642242432 -1.154163360595703 L 16 3.744466781616211 L 16 7.786067008972168 L 7.499910354614258 12.69382667541504 L -0.9999990463256836 7.786247253417969 L -0.9999990463256836 3.743786811828613 L 7.512060642242432 -1.154163360595703 Z" stroke="none" fill="#000"/>
      </g>
      <g id="Rectangle_227" data-name="Rectangle 227" transform="translate(1651 3962.5) rotate(-90)" stroke="#000" stroke-width="1">
        <rect width="9" height="9" stroke="none"/>
        <rect x="0.5" y="0.5" width="8" height="8" fill="none"/>
      </g>
      <g id="Rectangle_228" data-name="Rectangle 228" transform="translate(1531 3948) rotate(-90)" fill="#fff" stroke="#000" stroke-width="1">
        <rect width="9" height="9" stroke="none"/>
        <rect x="0.5" y="0.5" width="8" height="8" fill="none"/>
      </g>
      <g id="Rectangle_231" data-name="Rectangle 231" transform="translate(1609.5 3919.864) rotate(-135)" fill="#fff" stroke="#000" stroke-width="1">
        <rect width="9" height="9" stroke="none"/>
        <rect x="0.5" y="0.5" width="8" height="8" fill="none"/>
      </g>
      <g id="Ellipse_28" data-name="Ellipse 28" transform="translate(1565.5 3908.5)" stroke="#000" stroke-width="1">
        <circle cx="5.5" cy="5.5" r="5.5" stroke="none"/>
        <circle cx="5.5" cy="5.5" r="5" fill="none"/>
      </g>
      <g id="Ellipse_29" data-name="Ellipse 29" transform="translate(1483.5 4007.5)" stroke="#000" stroke-width="1">
        <circle cx="5.5" cy="5.5" r="5.5" stroke="none"/>
        <circle cx="5.5" cy="5.5" r="5" fill="none"/>
      </g>
      <path id="Path_496" data-name="Path 496" d="M19086.564,4049.8h26.936V3911.5h141.428v83.162" transform="translate(-17598 -37)" fill="none" stroke="#000" stroke-width="1" stroke-dasharray="5"/>
      <g id="Rectangle_229" data-name="Rectangle 229" transform="translate(1511 3879) rotate(-90)" fill="#fff" stroke="#000" stroke-width="1">
        <rect width="9" height="9" stroke="none"/>
        <rect x="0.5" y="0.5" width="8" height="8" fill="none"/>
      </g>
    </g>
  </g>
</svg>
