<svg xmlns="http://www.w3.org/2000/svg" xmlns:xlink="http://www.w3.org/1999/xlink" width="1084" height="615.496" viewBox="0 0 1084 615.496">
  <defs>
    <clipPath id="clip-path">
      <rect id="Rectangle_42" data-name="Rectangle 42" width="40" height="40" fill="none"/>
    </clipPath>
  </defs>
  <g id="Group_1001" data-name="Group 1001" transform="translate(-1246 -2796.907)">
    <g id="Rectangle_43" data-name="Rectangle 43" transform="translate(1246 3412.403) rotate(-90)" fill="rgba(255,255,255,0.9)" stroke="#000" stroke-width="1" stroke-dasharray="5">
      <rect width="136.372" height="1084" stroke="none"/>
      <rect x="0.5" y="0.5" width="135.372" height="1083" fill="none"/>
    </g>
    <g id="Rectangle_48" data-name="Rectangle 48" transform="translate(1246 3277.031) rotate(-90)" fill="rgba(255,255,255,0.9)" stroke="#000" stroke-width="1" stroke-dasharray="5">
      <rect width="136.372" height="1084" stroke="none"/>
      <rect x="0.5" y="0.5" width="135.372" height="1083" fill="none"/>
    </g>
    <g id="Rectangle_49" data-name="Rectangle 49" transform="translate(1727 2983.605) rotate(-90)" fill="#f3fafe" stroke="#000" stroke-width="1">
      <rect width="63.605" height="118" stroke="none"/>
      <rect x="0.5" y="0.5" width="62.605" height="117" fill="none"/>
    </g>
    <g id="Rectangle_50" data-name="Rectangle 50" transform="translate(1246 2890.512) rotate(-90)" fill="rgba(255,255,255,0.9)" stroke="#000" stroke-width="1" stroke-dasharray="5">
      <rect width="93.605" height="1083" stroke="none"/>
      <rect x="0.5" y="0.5" width="92.605" height="1082" fill="none"/>
    </g>
    <g id="Rectangle_45" data-name="Rectangle 45" transform="translate(1246 3091.5) rotate(-90)" fill="#1593ed" stroke="#1593ed" stroke-width="1">
      <rect width="109" height="1084" stroke="none"/>
      <rect x="0.5" y="0.5" width="108" height="1083" fill="none"/>
    </g>
    <g id="Rectangle_46" data-name="Rectangle 46" transform="translate(1384 3071.477) rotate(-90)" fill="#1593ed" stroke="#fff" stroke-width="1" stroke-dasharray="5">
      <rect width="69.477" height="256" stroke="none"/>
      <rect x="0.5" y="0.5" width="68.477" height="255" fill="none"/>
    </g>
    <g id="Rectangle_47" data-name="Rectangle 47" transform="translate(1936 3071.977) rotate(-90)" fill="#1593ed" stroke="#fff" stroke-width="1" stroke-dasharray="5">
      <rect width="69.477" height="256" stroke="none"/>
      <rect x="0.5" y="0.5" width="68.477" height="255" fill="none"/>
    </g>
    <g id="Group_912" data-name="Group 912" transform="translate(64.983 20)">
      <g id="Group_41" data-name="Group 41" transform="translate(1618.017 3295.226)">
        <path id="Path_56" data-name="Path 56" d="M17.526,28.182.982,18.665V13.237L17.7,22.886,20,24.2l.019,5.418-.981-.564v0ZM1,12.108,7.72,8.226,20,1.134,32.275,8.226l6.734,3.882L20,23.082ZM20,0,7.229,7.377.014,11.544,0,11.534v7.7L20.029,30.759,40,19.235V11.549l-.015,0-7.22-4.167Z"/>
        <path id="Path_57" data-name="Path 57" d="M17.526,59.733.982,50.216V44.788L17.7,54.437,20,55.748l.019,5.418-.981-.564v0ZM20,54.633,0,43.085v7.7L20.029,62.31,40,50.786v-7.7Z" transform="translate(0 -21.939)"/>
        <path id="Path_58" data-name="Path 58" d="M17.526,79.318.982,69.8V64.373L17.7,74.022,20,75.333l.019,5.418-.981-.564v0ZM20,74.218,0,62.67v7.7L20.029,81.895,40,70.371v-7.7Z" transform="translate(0 -31.912)"/>
      </g>
      <g id="Group_43" data-name="Group 43" transform="translate(1618.017 3168.845)">
        <g id="Group_42" data-name="Group 42" clip-path="url(#clip-path)">
          <path id="Path_59" data-name="Path 59" d="M40,23.848v-7.7H36.564a16.82,16.82,0,0,0-2.135-5.134l2.434-2.434L31.421,3.131,28.987,5.566a16.932,16.932,0,0,0-5.134-2.13V0h-7.7V3.436a16.96,16.96,0,0,0-5.139,2.13L8.579,3.131,3.136,8.579l2.434,2.434a16.932,16.932,0,0,0-2.13,5.134H0v7.7H3.44a16.809,16.809,0,0,0,2.13,5.134L3.136,31.416l5.443,5.448,2.434-2.434a16.96,16.96,0,0,0,5.139,2.13V40h7.7V36.56a16.932,16.932,0,0,0,5.134-2.13l2.434,2.434,5.443-5.448-2.429-2.429a16.96,16.96,0,0,0,2.13-5.139Zm-11.534,0a9.273,9.273,0,0,1-4.613,4.609,6.236,6.236,0,0,1-.589.25,9.338,9.338,0,0,1-6.528,0c-.2-.074-.393-.157-.584-.245a9.3,9.3,0,0,1-4.613-4.613c-.088-.191-.172-.388-.245-.589a9.324,9.324,0,0,1,0-6.523,6.235,6.235,0,0,1,.25-.589,9.273,9.273,0,0,1,4.609-4.613c.191-.088.383-.172.584-.245a9.338,9.338,0,0,1,6.528,0,6.235,6.235,0,0,1,.589.25,9.263,9.263,0,0,1,4.609,4.609,5.14,5.14,0,0,1,.245.589A9.128,9.128,0,0,1,29.3,20a9.233,9.233,0,0,1-.589,3.264c-.074.2-.157.393-.245.584"/>
        </g>
      </g>
      <path id="Path_577" data-name="Path 577" d="M7.92,16h2.432V4.832H7.92V9.28H3.664V4.832H1.232V16H3.664V11.424H7.92Zm12.288,0V14.16h-.784V10.48c0-1.984-1.216-3.072-3.584-3.072a3.662,3.662,0,0,0-3.392,1.6l1.408,1.248a2.074,2.074,0,0,1,1.808-.992c.992,0,1.392.512,1.392,1.328v.528H15.728c-2.224,0-3.6.848-3.6,2.624a2.34,2.34,0,0,0,2.608,2.448A2.269,2.269,0,0,0,17.2,14.528h.1A1.6,1.6,0,0,0,18.9,16Zm-4.592-1.456c-.7,0-1.1-.288-1.1-.9v-.24c0-.608.48-.944,1.392-.944h1.152v.992C17.056,14.224,16.4,14.544,15.616,14.544ZM24.16,16V11.088c0-.976.672-1.28,2.048-1.28H26.8V7.6h-.416A2.106,2.106,0,0,0,24.24,9.424h-.08V7.6H21.792V16Zm9.184,0h2.368V4.16H33.344V9.008h-.08a2.275,2.275,0,0,0-2.256-1.6c-2.128,0-3.232,1.536-3.232,4.384s1.1,4.4,3.232,4.4a2.294,2.294,0,0,0,2.256-1.6h.08Zm-1.552-1.728a1.578,1.578,0,0,1-1.552-1.744V11.072a1.578,1.578,0,0,1,1.552-1.744c.9,0,1.552.464,1.552,1.232v2.48C33.344,13.808,32.688,14.272,31.792,14.272ZM39.472,16H41.9l1.024-3.552.576-2.176h.048l.592,2.176L45.168,16h2.48l2.32-8.4H47.776l-.816,3.392-.576,2.56H46.32l-.688-2.56L44.656,7.6H42.5l-.96,3.392-.672,2.56H40.8l-.576-2.56L39.408,7.6H37.12Zm19.2,0V14.16h-.784V10.48c0-1.984-1.216-3.072-3.584-3.072a3.662,3.662,0,0,0-3.392,1.6l1.408,1.248a2.074,2.074,0,0,1,1.808-.992c.992,0,1.392.512,1.392,1.328v.528H54.192c-2.224,0-3.6.848-3.6,2.624A2.34,2.34,0,0,0,53.2,16.192a2.269,2.269,0,0,0,2.464-1.664h.1A1.6,1.6,0,0,0,57.36,16ZM54.08,14.544c-.7,0-1.1-.288-1.1-.9v-.24c0-.608.48-.944,1.392-.944H55.52v.992C55.52,14.224,54.864,14.544,54.08,14.544ZM62.624,16V11.088c0-.976.672-1.28,2.048-1.28h.592V7.6h-.416A2.106,2.106,0,0,0,62.7,9.424h-.08V7.6H60.256V16Zm7.52.192a4.553,4.553,0,0,0,3.52-1.392L72.48,13.328a2.662,2.662,0,0,1-2.064,1.008,1.65,1.65,0,0,1-1.856-1.808V12.4h5.392v-.7c0-2.272-1.12-4.288-3.9-4.288-2.528,0-3.936,1.728-3.936,4.384C66.112,14.48,67.568,16.192,70.144,16.192ZM70.1,9.152c.944,0,1.408.688,1.408,1.712v.144H68.56V10.88A1.536,1.536,0,0,1,70.1,9.152Z" transform="translate(1680 3310.217)"/>
      <path id="Path_578" data-name="Path 578" d="M5.712,16.192c2.96,0,4.912-1.984,4.912-5.776S8.672,4.64,5.712,4.64.8,6.624.8,10.416,2.752,16.192,5.712,16.192Zm0-2.16c-1.456,0-2.336-1.008-2.336-2.784V9.584c0-1.776.88-2.784,2.336-2.784S8.048,7.808,8.048,9.584v1.664C8.048,13.024,7.168,14.032,5.712,14.032ZM12.528,19.2H14.9V14.592h.08a2.294,2.294,0,0,0,2.256,1.6c2.128,0,3.232-1.552,3.232-4.4s-1.1-4.384-3.232-4.384a2.275,2.275,0,0,0-2.256,1.6H14.9V7.6H12.528Zm3.92-4.928c-.9,0-1.552-.464-1.552-1.232V10.56c0-.768.656-1.232,1.552-1.232A1.578,1.578,0,0,1,18,11.072v1.456A1.578,1.578,0,0,1,16.448,14.272Zm9.312,1.92A4.553,4.553,0,0,0,29.28,14.8L28.1,13.328a2.662,2.662,0,0,1-2.064,1.008,1.65,1.65,0,0,1-1.856-1.808V12.4h5.392v-.7c0-2.272-1.12-4.288-3.9-4.288-2.528,0-3.936,1.728-3.936,4.384C21.728,14.48,23.184,16.192,25.76,16.192Zm-.048-7.04c.944,0,1.408.688,1.408,1.712v.144H24.176V10.88A1.536,1.536,0,0,1,25.712,9.152ZM33.616,16V11.088c0-.976.672-1.28,2.048-1.28h.592V7.6H35.84A2.106,2.106,0,0,0,33.7,9.424h-.08V7.6H31.248V16Zm11.392,0V14.16h-.784V10.48c0-1.984-1.216-3.072-3.584-3.072a3.662,3.662,0,0,0-3.392,1.6l1.408,1.248a2.074,2.074,0,0,1,1.808-.992c.992,0,1.392.512,1.392,1.328v.528H40.528c-2.224,0-3.6.848-3.6,2.624a2.34,2.34,0,0,0,2.608,2.448A2.269,2.269,0,0,0,42,14.528h.1A1.6,1.6,0,0,0,43.7,16Zm-4.592-1.456c-.7,0-1.1-.288-1.1-.9v-.24c0-.608.48-.944,1.392-.944h1.152v.992C41.856,14.224,41.2,14.544,40.416,14.544ZM50.848,16V14.16H49.312V9.44h1.664V7.6H49.312V5.328H47.184V6.7c0,.576-.192.9-.832.9H45.76V9.44h1.184v4.112A2.211,2.211,0,0,0,49.44,16Zm2.96-9.3c.96,0,1.376-.5,1.376-1.168V5.184c0-.672-.416-1.168-1.376-1.168s-1.376.5-1.376,1.168v.352C52.432,6.208,52.848,6.7,53.808,6.7ZM52.624,16h2.368V7.6H52.624Zm6.944,0V10.56c0-.832.752-1.232,1.52-1.232.864,0,1.168.528,1.168,1.6V16h2.368V10.736c0-2.112-.912-3.328-2.624-3.328a2.291,2.291,0,0,0-2.336,1.616h-.1V7.6H57.2V16Zm14.944.608c0-1.552-.88-2.448-2.928-2.448H69.152c-.72,0-1.008-.24-1.008-.64a.786.786,0,0,1,.368-.672A5.932,5.932,0,0,0,70,13.024c2.432,0,3.6-1.1,3.6-2.784a2.487,2.487,0,0,0-1.44-2.4v-.1h1.856V5.984H72.688a1.119,1.119,0,0,0-1.264,1.264v.32A5.537,5.537,0,0,0,70,7.408c-2.416,0-3.6,1.136-3.6,2.832a2.478,2.478,0,0,0,1.5,2.4V12.7c-.784.16-1.568.608-1.568,1.488a1.419,1.419,0,0,0,1.216,1.472v.176a1.565,1.565,0,0,0-1.568,1.6c0,1.216,1.072,1.952,3.984,1.952C73.392,19.392,74.512,18.384,74.512,16.608Zm-2.224.32c0,.608-.48.9-1.76.9h-.96c-1.28,0-1.76-.288-1.76-.9a1.079,1.079,0,0,1,.3-.752h2.88C71.936,16.176,72.288,16.448,72.288,16.928ZM70,11.472c-.928,0-1.392-.416-1.392-1.152v-.192c0-.736.464-1.152,1.392-1.152s1.392.416,1.392,1.152v.192C71.392,11.056,70.928,11.472,70,11.472Zm13.088,4.72c2.784,0,4.352-1.488,4.352-3.632,0-1.92-1.1-2.944-3.392-3.312l-1.1-.176c-.928-.144-1.328-.432-1.328-1.2,0-.672.528-1.088,1.616-1.088a2.92,2.92,0,0,1,2.4,1.056l1.616-1.632A4.972,4.972,0,0,0,83.376,4.64c-2.624,0-4.192,1.392-4.192,3.392,0,1.872,1.072,3.024,3.424,3.328l1.1.144c1.04.144,1.3.592,1.3,1.2,0,.816-.576,1.344-1.76,1.344a3.639,3.639,0,0,1-2.8-1.28l-1.6,1.616A5.43,5.43,0,0,0,83.088,16.192ZM93.232,11.52l-.624,2.432h-.1L91.9,11.52,90.672,7.6H88.32l2.944,8.832-.288.928H89.392V19.2h1.472a2.391,2.391,0,0,0,2.576-1.9l3.232-9.7H94.464Zm7.344,4.672c2.16,0,3.6-1.184,3.6-2.8,0-1.456-.944-2.288-2.768-2.528l-.944-.128c-.688-.1-.88-.336-.88-.784,0-.416.32-.7,1.12-.7a2.808,2.808,0,0,1,1.936.864L104,8.72a4.222,4.222,0,0,0-3.424-1.312c-2,0-3.264,1.12-3.264,2.736,0,1.52.928,2.352,2.832,2.592l.912.112c.592.08.848.288.848.7,0,.5-.32.8-1.248.8a2.921,2.921,0,0,1-2.224-1.072L97.04,14.688A4.385,4.385,0,0,0,100.576,16.192Zm9.44-.192V14.16H108.48V9.44h1.664V7.6H108.48V5.328h-2.128V6.7c0,.576-.192.9-.832.9h-.592V9.44h1.184v4.112a2.211,2.211,0,0,0,2.5,2.448Zm5.216.192a4.553,4.553,0,0,0,3.52-1.392l-1.184-1.472a2.662,2.662,0,0,1-2.064,1.008,1.65,1.65,0,0,1-1.856-1.808V12.4h5.392v-.7c0-2.272-1.12-4.288-3.9-4.288-2.528,0-3.936,1.728-3.936,4.384C111.2,14.48,112.656,16.192,115.232,16.192Zm-.048-7.04c.944,0,1.408.688,1.408,1.712v.144h-2.944V10.88A1.536,1.536,0,0,1,115.184,9.152Zm7.9,6.848V10.56a1.27,1.27,0,0,1,1.392-1.232c.768,0,1.152.512,1.152,1.6V16H128V10.56a1.261,1.261,0,0,1,1.392-1.232c.784,0,1.152.512,1.152,1.6V16h2.368V10.736c0-2.112-.9-3.328-2.512-3.328a2.609,2.609,0,0,0-2.56,1.7h-.048a2.324,2.324,0,0,0-2.352-1.7,2.241,2.241,0,0,0-2.256,1.616h-.1V7.6H120.72V16Z" transform="translate(1680 3178.845)"/>
    </g>
    <path id="Path_579" data-name="Path 579" d="M5.744.192A4.365,4.365,0,0,0,9.952-2.48L7.968-3.632A2.292,2.292,0,0,1,5.744-1.968c-1.424,0-2.368-.96-2.368-2.72V-6.48c0-1.76.944-2.72,2.368-2.72a1.98,1.98,0,0,1,2.08,1.552l2.1-1.088A4.138,4.138,0,0,0,5.744-11.36C2.736-11.36.8-9.28.8-5.5S2.736.192,5.744.192Zm9.184,0c2.464,0,3.936-1.7,3.936-4.4s-1.472-4.384-3.936-4.384-3.936,1.68-3.936,4.384S12.464.192,14.928.192Zm0-1.872c-.928,0-1.472-.608-1.472-1.664V-5.056c0-1.056.544-1.664,1.472-1.664S16.4-6.112,16.4-5.056v1.712C16.4-2.288,15.856-1.68,14.928-1.68ZM28.32.608c0-1.552-.88-2.448-2.928-2.448H22.96c-.72,0-1.008-.24-1.008-.64a.786.786,0,0,1,.368-.672,5.932,5.932,0,0,0,1.488.176c2.432,0,3.6-1.1,3.6-2.784a2.487,2.487,0,0,0-1.44-2.4v-.1h1.856v-1.76H26.5a1.119,1.119,0,0,0-1.264,1.264v.32a5.537,5.537,0,0,0-1.424-.16c-2.416,0-3.6,1.136-3.6,2.832a2.478,2.478,0,0,0,1.5,2.4V-3.3c-.784.16-1.568.608-1.568,1.488A1.419,1.419,0,0,0,21.36-.336V-.16a1.565,1.565,0,0,0-1.568,1.6c0,1.216,1.072,1.952,3.984,1.952C27.2,3.392,28.32,2.384,28.32.608ZM26.1.928c0,.608-.48.9-1.76.9h-.96c-1.28,0-1.76-.288-1.76-.9a1.079,1.079,0,0,1,.3-.752H24.8C25.744.176,26.1.448,26.1.928ZM23.808-4.528c-.928,0-1.392-.416-1.392-1.152v-.192c0-.736.464-1.152,1.392-1.152S25.2-6.608,25.2-5.872v.192C25.2-4.944,24.736-4.528,23.808-4.528Z" transform="translate(1772 2957)"/>
    <path id="Path_582" data-name="Path 582" d="M10.64,0,7.008-11.168H4L.32,0H2.784l.8-2.656H7.312L8.112,0ZM6.72-4.72H4.16L5.392-8.96h.08ZM12.064,3.2h2.368V-1.408h.08a2.294,2.294,0,0,0,2.256,1.6C18.9.192,20-1.36,20-4.208s-1.1-4.384-3.232-4.384a2.275,2.275,0,0,0-2.256,1.6h-.08V-8.4H12.064Zm3.92-4.928c-.9,0-1.552-.464-1.552-1.232V-5.44c0-.768.656-1.232,1.552-1.232a1.578,1.578,0,0,1,1.552,1.744v1.456A1.578,1.578,0,0,1,15.984-1.728ZM21.792,3.2H24.16V-1.408h.08A2.294,2.294,0,0,0,26.5.192c2.128,0,3.232-1.552,3.232-4.4s-1.1-4.384-3.232-4.384a2.275,2.275,0,0,0-2.256,1.6h-.08V-8.4H21.792Zm3.92-4.928c-.9,0-1.552-.464-1.552-1.232V-5.44c0-.768.656-1.232,1.552-1.232a1.578,1.578,0,0,1,1.552,1.744v1.456A1.578,1.578,0,0,1,25.712-1.728ZM34.944,0V-1.84H33.888v-10H31.52V-2.3A2.058,2.058,0,0,0,33.872,0Zm2.608-9.3c.96,0,1.376-.5,1.376-1.168v-.352c0-.672-.416-1.168-1.376-1.168s-1.376.5-1.376,1.168v.352C36.176-9.792,36.592-9.3,37.552-9.3ZM36.368,0h2.368V-8.4H36.368Zm7.968.192a3.291,3.291,0,0,0,3.408-2.32l-1.84-.8A1.567,1.567,0,0,1,44.336-1.68c-.96,0-1.456-.672-1.456-1.728V-4.976c0-1.056.5-1.744,1.456-1.744a1.391,1.391,0,0,1,1.44,1.152L47.7-6.4a3.3,3.3,0,0,0-3.36-2.192c-2.528,0-3.92,1.7-3.92,4.384S41.808.192,44.336.192ZM56.736,0V-1.84h-.784V-5.52c0-1.984-1.216-3.072-3.584-3.072a3.662,3.662,0,0,0-3.392,1.6l1.408,1.248a2.074,2.074,0,0,1,1.808-.992c.992,0,1.392.512,1.392,1.328v.528H52.256c-2.224,0-3.6.848-3.6,2.624A2.34,2.34,0,0,0,51.264.192a2.269,2.269,0,0,0,2.464-1.664h.1A1.6,1.6,0,0,0,55.424,0ZM52.144-1.456c-.7,0-1.1-.288-1.1-.9v-.24c0-.608.48-.944,1.392-.944h1.152v.992C53.584-1.776,52.928-1.456,52.144-1.456ZM62.576,0V-1.84H61.04V-6.56H62.7V-8.4H61.04v-2.272H58.912V-9.3c0,.576-.192.9-.832.9h-.592v1.84h1.184v4.112A2.211,2.211,0,0,0,61.168,0Zm2.96-9.3c.96,0,1.376-.5,1.376-1.168v-.352c0-.672-.416-1.168-1.376-1.168s-1.376.5-1.376,1.168v.352C64.16-9.792,64.576-9.3,65.536-9.3ZM64.352,0H66.72V-8.4H64.352Zm7.984.192c2.464,0,3.936-1.7,3.936-4.4S74.8-8.592,72.336-8.592,68.4-6.912,68.4-4.208,69.872.192,72.336.192Zm0-1.872c-.928,0-1.472-.608-1.472-1.664V-5.056c0-1.056.544-1.664,1.472-1.664s1.472.608,1.472,1.664v1.712C73.808-2.288,73.264-1.68,72.336-1.68ZM80.32,0V-5.44c0-.832.752-1.232,1.52-1.232.864,0,1.168.528,1.168,1.6V0h2.368V-5.264c0-2.112-.912-3.328-2.624-3.328a2.291,2.291,0,0,0-2.336,1.616h-.1V-8.4H77.952V0Z" transform="translate(1743.385 2849.709)"/>
    <path id="Path_581" data-name="Path 581" d="M81.18,16H87.1a3.005,3.005,0,0,0,2.88-3.184,2.47,2.47,0,0,0-2.512-2.624v-.1c1.136-.048,2.08-.688,2.08-2.4A2.7,2.7,0,0,0,86.6,4.832H81.18Zm2.432-4.608h2.8a.942.942,0,0,1,1.04,1.008v.544a.942.942,0,0,1-1.04,1.008h-2.8Zm0-4.512h2.416A.942.942,0,0,1,87.052,7.9v.48a.942.942,0,0,1-1.024,1.024H83.612ZM99.244,16V14.16H98.46V10.48c0-1.984-1.216-3.072-3.584-3.072a3.662,3.662,0,0,0-3.392,1.6l1.408,1.248A2.074,2.074,0,0,1,94.7,9.264c.992,0,1.392.512,1.392,1.328v.528H94.764c-2.224,0-3.6.848-3.6,2.624a2.34,2.34,0,0,0,2.608,2.448,2.269,2.269,0,0,0,2.464-1.664h.1A1.6,1.6,0,0,0,97.932,16Zm-4.592-1.456c-.7,0-1.1-.288-1.1-.9v-.24c0-.608.48-.944,1.392-.944h1.152v.992C96.092,14.224,95.436,14.544,94.652,14.544Zm9.568,1.648a3.291,3.291,0,0,0,3.408-2.32l-1.84-.8a1.567,1.567,0,0,1-1.568,1.248c-.96,0-1.456-.672-1.456-1.728V11.024c0-1.056.5-1.744,1.456-1.744a1.391,1.391,0,0,1,1.44,1.152l1.92-.832a3.3,3.3,0,0,0-3.36-2.192c-2.528,0-3.92,1.7-3.92,4.384S101.692,16.192,104.22,16.192ZM109.1,16h2.368V13.632l1.056-1.184L114.412,16h2.816l-3.12-5.184,2.8-3.216h-2.624l-1.68,2-1.04,1.552h-.1V4.16H109.1Zm12.3.192a4.553,4.553,0,0,0,3.52-1.392l-1.184-1.472a2.662,2.662,0,0,1-2.064,1.008,1.65,1.65,0,0,1-1.856-1.808V12.4h5.392v-.7c0-2.272-1.12-4.288-3.9-4.288-2.528,0-3.936,1.728-3.936,4.384C117.372,14.48,118.828,16.192,121.4,16.192Zm-.048-7.04c.944,0,1.408.688,1.408,1.712v.144H119.82V10.88A1.536,1.536,0,0,1,121.356,9.152ZM129.26,16V10.56c0-.832.752-1.232,1.52-1.232.864,0,1.168.528,1.168,1.6V16h2.368V10.736c0-2.112-.912-3.328-2.624-3.328a2.291,2.291,0,0,0-2.336,1.616h-.1V7.6h-2.368V16Zm12.32,0h2.368V4.16H141.58V9.008h-.08a2.275,2.275,0,0,0-2.256-1.6c-2.128,0-3.232,1.536-3.232,4.384s1.1,4.4,3.232,4.4a2.294,2.294,0,0,0,2.256-1.6h.08Zm-1.552-1.728a1.578,1.578,0,0,1-1.552-1.744V11.072a1.578,1.578,0,0,1,1.552-1.744c.9,0,1.552.464,1.552,1.232v2.48C141.58,13.808,140.924,14.272,140.028,14.272Z" transform="translate(1400 3027)" fill="#fff"/>
    <path id="Path_580" data-name="Path 580" d="M90.412,16,91.82,9.952,92.38,7.5h.048l.544,2.448L94.38,16h2.768L99.74,4.832h-2.3l-1.072,5.36-.592,3.1h-.048l-.688-3.1-1.248-5.36H91.132L89.9,10.192l-.7,3.1h-.048l-.592-3.1L87.5,4.832H85.1L87.628,16Zm14,.192a4.553,4.553,0,0,0,3.52-1.392l-1.184-1.472a2.662,2.662,0,0,1-2.064,1.008,1.65,1.65,0,0,1-1.856-1.808V12.4h5.392v-.7c0-2.272-1.12-4.288-3.9-4.288-2.528,0-3.936,1.728-3.936,4.384C100.38,14.48,101.836,16.192,104.412,16.192Zm-.048-7.04c.944,0,1.408.688,1.408,1.712v.144h-2.944V10.88A1.536,1.536,0,0,1,104.364,9.152ZM109.9,16h2.368V14.592h.08a2.294,2.294,0,0,0,2.256,1.6c2.128,0,3.232-1.552,3.232-4.4s-1.1-4.384-3.232-4.384a2.275,2.275,0,0,0-2.256,1.6h-.08V4.16H109.9Zm3.92-1.728c-.9,0-1.552-.464-1.552-1.232V10.56c0-.768.656-1.232,1.552-1.232a1.578,1.578,0,0,1,1.552,1.744v1.456A1.578,1.578,0,0,1,113.82,14.272ZM126.6,16h2.864l-4.1-6.576,3.76-4.592H126.38l-2.512,3.152-1.584,2.16h-.1V4.832h-2.432V16h2.432V12.9l1.456-1.76Zm5.344-9.3c.96,0,1.376-.5,1.376-1.168V5.184c0-.672-.416-1.168-1.376-1.168s-1.376.5-1.376,1.168v.352C130.572,6.208,130.988,6.7,131.948,6.7ZM130.764,16h2.368V7.6h-2.368Zm8.928,0V14.16h-1.536V9.44h1.664V7.6h-1.664V5.328h-2.128V6.7c0,.576-.192.9-.832.9H134.6V9.44h1.184v4.112a2.211,2.211,0,0,0,2.5,2.448Z" transform="translate(1952 3027)" fill="#fff"/>
    <g id="Group_44" data-name="Group 44" transform="translate(1776 2884)">
      <path id="Path_60" data-name="Path 60" d="M18784.646,2877.461l10,10,10-10" transform="translate(-18784.646 -2831.949)" fill="none" stroke="#000" stroke-width="1"/>
      <path id="Path_61" data-name="Path 61" d="M19067.5,2831.512v48.538" transform="translate(-19057.5 -2825)" fill="none" stroke="#000" stroke-width="1"/>
      <g id="Ellipse_27" data-name="Ellipse 27" transform="translate(4.5)" fill="#fff" stroke="#000" stroke-width="1">
        <circle cx="5.5" cy="5.5" r="5.5" stroke="none"/>
        <circle cx="5.5" cy="5.5" r="5" fill="none"/>
      </g>
    </g>
    <g id="Group_47" data-name="Group 47" transform="translate(1780.837 3084.977)">
      <path id="Path_60-2" data-name="Path 60" d="M18784.646,2877.461l10,10,10-10" transform="translate(-18784.646 -2801.949)" fill="none" stroke="#000" stroke-width="1"/>
      <path id="Path_61-2" data-name="Path 61" d="M19067.5,2831.512v78.538" transform="translate(-19057.5 -2825)" fill="none" stroke="#000" stroke-width="1"/>
      <g id="Ellipse_27-2" data-name="Ellipse 27" transform="translate(4.5)" fill="#fff" stroke="#000" stroke-width="1">
        <circle cx="5.5" cy="5.5" r="5.5" stroke="none"/>
        <circle cx="5.5" cy="5.5" r="5" fill="none"/>
      </g>
    </g>
    <g id="Group_48" data-name="Group 48" transform="translate(1502 3064.977)">
      <path id="Path_60-3" data-name="Path 60" d="M18784.646,2877.461l10,10,10-10" transform="translate(-18784.646 -2781.949)" fill="none" stroke="#000" stroke-width="1"/>
      <path id="Path_61-3" data-name="Path 61" d="M19067.5,2831.512v98.538" transform="translate(-19057.5 -2825)" fill="none" stroke="#000" stroke-width="1"/>
      <g id="Ellipse_27-3" data-name="Ellipse 27" transform="translate(4.5)" fill="#fff" stroke="#000" stroke-width="1">
        <circle cx="5.5" cy="5.5" r="5.5" stroke="none"/>
        <circle cx="5.5" cy="5.5" r="5" fill="none"/>
      </g>
    </g>
    <g id="Group_805" data-name="Group 805" transform="translate(2054 3064.977)">
      <path id="Path_60-4" data-name="Path 60" d="M18784.646,2877.461l10,10,10-10" transform="translate(-18784.646 -2781.949)" fill="none" stroke="#000" stroke-width="1"/>
      <path id="Path_61-4" data-name="Path 61" d="M19067.5,2831.512v98.538" transform="translate(-19057.5 -2825)" fill="none" stroke="#000" stroke-width="1"/>
      <g id="Ellipse_27-4" data-name="Ellipse 27" transform="translate(4.5)" fill="#fff" stroke="#000" stroke-width="1">
        <circle cx="5.5" cy="5.5" r="5.5" stroke="none"/>
        <circle cx="5.5" cy="5.5" r="5" fill="none"/>
      </g>
    </g>
    <g id="Group_45" data-name="Group 45" transform="translate(1502 2884)">
      <path id="Path_60-5" data-name="Path 60" d="M18784.646,2877.461l10,10,10-10" transform="translate(-18784.646 -2749.804)" fill="none" stroke="#000" stroke-width="1"/>
      <path id="Path_61-5" data-name="Path 61" d="M19067.5,2821.511v131.7" transform="translate(-19057.5 -2816.012)" fill="none" stroke="#000" stroke-width="1"/>
      <g id="Ellipse_27-5" data-name="Ellipse 27" transform="translate(4.5)" fill="#fff" stroke="#000" stroke-width="1">
        <circle cx="5.5" cy="5.5" r="5.5" stroke="none"/>
        <circle cx="5.5" cy="5.5" r="5" fill="none"/>
      </g>
    </g>
    <g id="Group_46" data-name="Group 46" transform="translate(2054 2884)">
      <path id="Path_60-6" data-name="Path 60" d="M18784.646,2877.461l10,10,10-10" transform="translate(-18784.646 -2749.804)" fill="none" stroke="#000" stroke-width="1"/>
      <path id="Path_61-6" data-name="Path 61" d="M19067.5,2821.511v131.7" transform="translate(-19057.5 -2816.012)" fill="none" stroke="#000" stroke-width="1"/>
      <g id="Ellipse_27-6" data-name="Ellipse 27" transform="translate(4.5)" fill="#fff" stroke="#000" stroke-width="1">
        <circle cx="5.5" cy="5.5" r="5.5" stroke="none"/>
        <circle cx="5.5" cy="5.5" r="5" fill="none"/>
      </g>
    </g>
  </g>
</svg>
