<svg width="1230.7" height="500" version="1.1" viewBox="0 0 325.63 132.29" xmlns="http://www.w3.org/2000/svg" xmlns:xlink="http://www.w3.org/1999/xlink">
 <!-- Copyright &#169; 2023 Igalia, S.L. All rights reserved. -->
 <defs>
  <linearGradient id="linearGradient4252" x1="25.133" x2="147.37" y1="142.28" y2="142.28" gradientUnits="userSpaceOnUse" xlink:href="#redGradient"/>
  <linearGradient id="redGradient" x1="25.133" x2="147.37" y1="142.28" y2="142.28" gradientUnits="userSpaceOnUse">
   <stop stop-color="#f00" offset="0"/>
   <stop stop-color="#670164" offset="1"/>
  </linearGradient>
  <linearGradient id="linearGradient4254" x1="1765.1" x2="1887.3" y1="692.72" y2="692.72" gradientTransform="rotate(-90 680.97 1231.6)" gradientUnits="userSpaceOnUse" xlink:href="#orangeGradient"/>
  <linearGradient id="orangeGradient" x1="1765.1" x2="1887.3" y1="692.72" y2="692.72" gradientTransform="rotate(-90 680.97 1231.6)" gradientUnits="userSpaceOnUse">
   <stop stop-color="#ff9" offset="0"/>
   <stop stop-color="#f90" offset="1"/>
  </linearGradient>
  <linearGradient id="linearGradient4256" x1="1214.6" x2="1336.8" y1="2432.8" y2="2432.8" gradientTransform="rotate(180 680.97 1231.6)" gradientUnits="userSpaceOnUse" xlink:href="#blueGradient"/>
  <linearGradient id="blueGradient" x1="1214.6" x2="1336.8" y1="2432.8" y2="2432.8" gradientTransform="rotate(180 680.97 1231.6)" gradientUnits="userSpaceOnUse">
   <stop stop-color="#bfe7e5" offset="0"/>
   <stop stop-color="#0067b1" offset="1"/>
  </linearGradient>
  <linearGradient id="linearGradient4258" x1="-525.38" x2="-403.14" y1="1882.1" y2="1882.1" gradientTransform="rotate(90 680.97 1231.6)" gradientUnits="userSpaceOnUse" xlink:href="#greenGradient"/>
  <linearGradient id="greenGradient" x1="-525.38" x2="-403.14" y1="1882.1" y2="1882.1" gradientTransform="rotate(90 680.97 1231.6)" gradientUnits="userSpaceOnUse">
   <stop stop-color="#ff0" offset="0"/>
   <stop stop-color="#a1c22d" offset="1"/>
  </linearGradient>
 </defs>
 <path d="m49.832 17.269c-13.071 0-23.737 5.2467-31.113 11.402-.05444.04537-.10498.09617-.15911.14153-.19754.16646-.39066.32751-.58336.49499-.32612.28243-.65905.56205-.97228.84857-.32325.29617-.61114.60326-.91928.90157-.18006.17412-.37272.33732-.54802.51266-.17428.17444-.33952.36892-.51266.54802-.10958.11342-.22684.22077-.33589.33588-.17438.18403-.35684.35882-.53035.54802-.01438.01597-.02109.03738-.03533.05304-.45723.49994-.91242 1.0196-1.3612 1.5557-.07693.09233-.15332.18978-.22984.28275-.39017.47326-.76811.9495-1.1491 1.4496-.38855.51004-.77235 1.0359-1.1491 1.5733-.04911.07061-.09259.14122-.14144.21214-4.6153 6.6544-8.2288 15.35-8.6983 25.58-.015016.32457-.026837.64467-.035336.97227-.021406.60531-.035336 1.2236-.035336 1.8385 0 12.175 4.4976 22.203 10.076 29.469.40852.53211.81869 1.0536 1.2375 1.5557.04521.05431.0961.10511.14141.15911.19955.23706.39969.45914.60106.68943.24821.28499.49094.57339.74249.84854.29706.32412.6022.62783.90157.93694.1731.17892.33842.37375.51267.54803.17431.17412.36899.33946.54801.51265.29192.28274.57844.56774.88392.84857.12502.11469.26186.22172.38892.33588.89783.80799 1.8383 1.6096 2.8462 2.3866.10614.0815.21096.16677.31821.2476 7.0379 5.336 16.64 9.6651 28.179 9.9349.56002.0192 1.1286.0355 1.6971.0355 13.142-.00048 23.858-5.307 31.237-11.509.03575-.0288.07042-.0585.10607-.0885.51088-.43176.98907-.86937 1.4673-1.3082.01565-.0128.03738-.0224.053-.0355.30662-.28211.59099-.58233.88392-.8662.17898-.17316.37375-.33853.54803-.51269.17537-.1754.33836-.36779.51266-.54802.2984-.30831.60531-.59598.90156-.91928.69593-.76125 1.382-1.5856 2.0507-2.4219 5.721-7.1205 10.513-17.117 10.802-29.257.01853-.55988.03534-1.1288.03534-1.6971 0-11.211-3.8743-20.656-8.8567-27.772-.04885-.07029-.09233-.14217-.14144-.21214-.81433-1.1509-1.6495-2.2281-2.5103-3.2528-.02971-.03546-.05859-.07061-.08837-.10607-.43182-.51122-.86938-1.0064-1.3082-1.485-.01438-.01597-.02109-.03738-.03533-.05304-.28202-.30671-.58234-.59083-.86621-.8839-.17332-.17892-.33827-.37368-.51267-.54802-.17428-.17412-.36904-.33949-.54803-.51269-.11393-.11022-.21987-.22588-.33588-.33588-.17882-.16965-.34703-.34438-.53034-.51266-.02141-.01917-.04936-.03355-.07077-.05303-.47742-.43655-.96005-.86394-1.4673-1.2905-.03467-.02875-.07118-.05911-.10607-.0885-.02844-.02236-.05978-.04697-.08837-.07061-6.9412-5.8177-16.824-10.8-28.893-11.358-.2831-.01597-.56322-.02556-.84856-.03546-.03534-.000863-.07067.00083-.10607 0-.60644-.02237-1.2214-.03546-1.8385-.03546zm.37125 22.434c5.5824 4.0835 10.613 8.5427 14.16 12.092 3.5863 3.5863 8.1167 8.6881 12.251 14.355-4.1276 5.6599-8.6502 10.755-12.233 14.337-3.5685 3.5676-8.6468 8.0579-14.267 12.163-5.6259-4.1014-10.688-8.5761-14.256-12.146-3.5713-3.5696-8.0771-8.6626-12.198-14.302 4.1166-5.6096 8.6281-10.663 12.198-14.231 3.5866-3.5866 8.6836-8.1213 14.337-12.268z" fill="#fff" stroke-width=".84532"/>
 <g transform="matrix(.56571 0 0 .56571 1.3239 17.269)">
  <path d="m25.133 147.53c20.229 20.221 66.438-15.891 86.329-35.777 9.527 9.531 25.533 25.377 35.91 35.758-13.47 13.46-34.92 25.26-61.6 25.26-26.681 0-47.707-12.31-60.637-25.24z" fill="url(#linearGradient4252)"/>
  <path d="m147.37 147.51c20.23-20.227-16.041-66.597-35.928-86.484 9.527-9.531 25.529-25.381 35.904-35.761 13.479 13.477 25.28 34.927 25.28 61.606 0 26.678-12.323 47.704-25.256 60.639z" fill="url(#linearGradient4254)"/>
  <path d="m147.35 25.265c-20.23-20.23-66.418 16.197-86.302 36.084-9.529-9.528-25.557-25.687-35.934-36.062 13.466-13.469 34.92-25.269 61.601-25.269 26.68 0 47.702 12.314 60.633 25.247z" fill="url(#linearGradient4256)"/>
  <path d="m25.114 25.288c-20.227 20.225 16.048 66.593 35.934 86.482-9.534 9.53-25.535 25.38-35.915 35.76-13.467-13.47-25.112-34.77-25.112-61.449 0-26.68 12.159-47.865 25.093-60.793z" fill="url(#linearGradient4258)"/>
 </g>
 <g transform="matrix(.56571 0 0 .56571 1.3239 17.269)" style="mix-blend-mode:multiply">
  <path d="m147.37 147.51c-20.223 20.229-66.438-15.846-86.324-35.74-9.534 9.531-25.535 25.381-35.915 35.76 13.474 13.469 34.926 25.27 61.608 25.27 26.674-.001 47.705-12.358 60.631-25.29z" fill="url(#linearGradient4252)"/>
  <path d="m147.35 25.265c20.229 20.228-15.998 66.601-35.887 86.487 9.537 9.539 25.533 25.377 35.91 35.758 13.471-13.479 25.272-34.928 25.272-61.603 0-26.679-12.36-47.707-25.29-60.642z" fill="url(#linearGradient4254)"/>
  <path d="m25.114 25.288c20.229-20.223 66.443 15.847 86.326 35.738 9.53-9.533 25.53-25.381 35.91-35.761-13.47-13.468-34.92-25.265-61.603-25.265-26.681 0-47.699 12.359-60.633 25.288z" fill="url(#linearGradient4256)"/>
  <path d="M 25.133,147.53 C 4.904,127.3 41.156,81.231 61.048,61.35 51.516,51.813 35.493,35.666 25.114,25.288 11.643,38.761 0,60.37 0,87.049 0,113.72 12.204,134.6 25.133,147.53 Z" fill="url(#linearGradient4258)"/>
 </g>
 <g transform="matrix(.84532 0 0 .84532 -153.91 -376.16)">
  <g fill="#6b6864">
   <path d="m334.37 581.23c-4.4579 0-6.5217 1.6098-6.5217 7.4711 0 5.9438 2.0432 7.5536 6.5217 7.5536 4.4992 0 6.5424-1.6098 6.5424-7.5536 0-5.8613-2.0638-7.4711-6.5424-7.4711zm0 1.2589c3.6943 0 4.9738.97 4.9738 6.2534 0 5.0151-1.2796 6.2121-4.9738 6.2121-3.653 0-4.9119-1.197-4.9119-6.2121 0-5.2834 1.2589-6.2534 4.9119-6.2534z"/>
   <path d="m348 585.26c-1.2589 0-3.0751.30957-4.2102.82553v13.848h1.3415v-4.5404c.51596.41277 1.3828.86681 2.8687.86681 3.2402 0 4.7262-1.2796 4.7262-5.5517 0-4.2515-1.5066-5.4485-4.7262-5.4485zm0 1.2796c2.4353 0 3.2402.66043 3.2402 4.2102 0 3.3847-.80489 4.2309-3.2402 4.2309-1.5479 0-2.8687-.51596-2.8687-1.486v-6.5217c.80489-.28894 1.8574-.43341 2.8687-.43341z"/>
   <path d="m360.02 585.26c-3.0958 0-4.6849 1.3621-4.6849 5.4485 0 4.2721 1.713 5.5517 4.8706 5.5517.86681 0 2.3528-.24766 3.426-.57787l-.30958-1.2383c-.88744.33021-2.2496.55724-2.9926.55724-2.394 0-3.4879-.70171-3.5085-4.107h7.4504c0-4.4372-1.3002-5.6343-4.2515-5.6343zm0 1.2589c1.9194 0 2.6004.55724 2.7243 3.1577h-5.9026c.18575-2.5179 1.0526-3.1577 3.1783-3.1577z"/>
   <path d="m371.1 585.26c-1.2589 0-3.0751.30957-4.2102.82553v9.8858h1.3415v-9.0809c.80489-.24766 1.6098-.35085 2.6211-.35085 2.3528 0 3.0132.63979 3.0132 3.8181v5.6136h1.3415v-5.8819c0-3.7974-1.0938-4.8294-4.107-4.8294z"/>
   <path d="m389.73 581.23c-3.5085 0-5.7581 1.1351-5.7581 4.2102 0 2.6417 1.5685 3.5911 5.0151 3.8387 2.8481.20638 3.6324 1.3621 3.6324 2.7862 0 2.2289-1.7543 2.8274-4.2928 2.8274-1.1351 0-2.7655-.20638-3.653-.53659l-.41276 1.3208c1.1145.35085 2.8068.57787 4.0864.57787 3.5085 0 5.8406-1.1557 5.8406-4.2102 0-2.6624-1.5272-3.9006-4.9738-4.169-2.8481-.20638-3.653-1.0319-3.653-2.4766 0-2.2289 1.6304-2.8274 4.1896-2.8274 1.1764 0 2.8687.22702 3.5292.55723l.41277-1.3415c-1.1145-.33021-2.7036-.55724-3.9626-.55724z"/>
   <path d="m401.54 585.26c-3.2196 0-4.7262 1.197-4.7262 5.4485 0 4.2721 1.486 5.5517 4.7262 5.5517 3.2609 0 4.7468-1.2796 4.7468-5.5517 0-4.2515-1.5066-5.4485-4.7468-5.4485zm0 1.2383c2.456 0 3.2609.7017 3.2609 4.2515 0 3.3847-.8049 4.2721-3.2609 4.2721-2.4353 0-3.2402-.88744-3.2402-4.2721 0-3.5498.80489-4.2515 3.2402-4.2515z"/>
   <path d="m409.18 585.55v5.8819c0 3.7768 1.0938 4.8294 4.107 4.8294 1.2383 0 3.0545-.30957 4.2102-.82553v-9.8858h-1.3415v9.0602c-.8049.2683-1.6304.37149-2.6417.37149-2.3321 0-2.9926-.63979-2.9926-3.8181v-5.6136z"/>
   <path d="m420.62 585.55v10.422h1.3415v-7.9664c0-.94936 1.3828-1.3828 2.9306-1.3828.39213 0 .76362.0413 1.0732.0826v-1.3828c-.33021-.0413-.7017-.0619-1.0732-.0619-1.486 0-2.5385.53659-2.9306 1.0319v-.74298z"/>
   <path d="m432.49 585.26c-3.2196 0-5.0358 1.197-5.0358 5.4485 0 4.2721 1.7955 5.5517 5.0358 5.5517.88745 0 2.1877-.22702 2.9719-.57787l-.43341-1.2383c-.74298.33021-1.6511.5366-2.5385.5366-2.4353 0-3.5498-.84617-3.5498-4.2309 0-3.5498 1.1145-4.2102 3.5498-4.2102.86681 0 1.7955.14447 2.5385.49532l.43341-1.2589c-.74298-.28894-2.1051-.51596-2.9719-.51596z"/>
   <path d="m441.77 585.26c-3.0958 0-4.6849 1.3621-4.6849 5.4485 0 4.2721 1.713 5.5517 4.8706 5.5517.86681 0 2.3528-.24766 3.426-.57787l-.30958-1.2383c-.88745.33021-2.2496.55724-2.9926.55724-2.394 0-3.4879-.70171-3.5085-4.107h7.4504c0-4.4372-1.3002-5.6343-4.2515-5.6343zm0 1.2589c1.9194 0 2.6004.55724 2.7243 3.1577h-5.9026c.18574-2.5179 1.0526-3.1577 3.1783-3.1577z"/>
   <path d="m460.84 581.23c-4.4579 0-6.5836 1.5272-6.5836 7.4092 0 5.8613 2.1258 7.6155 6.5836 7.6155 1.2796 0 2.91-.22702 4.0245-.57787l-.47468-1.3208c-.86681.33021-2.4147.53659-3.5292.53659-3.6323 0-4.9945-.99064-4.9945-6.2534 0-5.2834 1.3621-6.0677 4.9945-6.0677 1.1145 0 2.6624.20638 3.5292.55723l.47468-1.3415c-1.1145-.33021-2.7449-.55724-4.0245-.55724z"/>
   <path d="m471.4 585.26c-3.2196 0-4.7262 1.197-4.7262 5.4485 0 4.2721 1.486 5.5517 4.7262 5.5517 3.2609 0 4.7468-1.2796 4.7468-5.5517 0-4.2515-1.5066-5.4485-4.7468-5.4485zm0 1.2383c2.456 0 3.2609.7017 3.2609 4.2515 0 3.3847-.80489 4.2721-3.2609 4.2721-2.4353 0-3.2402-.88744-3.2402-4.2721 0-3.5498.80489-4.2515 3.2402-4.2515z"/>
   <path d="m483.24 585.26c-1.2589 0-3.0751.30957-4.2102.82553v9.8858h1.3415v-9.0809c.8049-.24766 1.6098-.35085 2.6211-.35085 2.3528 0 3.0132.63979 3.0132 3.8181v5.6136h1.3415v-5.8819c0-3.7974-1.0938-4.8294-4.107-4.8294z"/>
   <path d="m494.28 585.26c-2.7036 0-4.1277.78425-4.1277 3.2402 0 1.9606 1.3828 2.6004 3.9006 2.7862 2.0019.1651 2.5592.7017 2.5592 1.8162 0 1.6511-.86681 1.94-2.5592 1.94-1.0732 0-2.6211-.2683-3.3434-.59851l-.41277 1.2589c1.0319.35085 2.7243.55723 3.7562.55723 2.7655 0 4.0245-.80489 4.0245-3.2815 0-1.94-1.1558-2.8068-3.8594-2.9926-1.8781-.12383-2.6004-.57787-2.6004-1.6098 0-1.6304.88745-1.8781 2.6624-1.8781 1.0113 0 2.1257.24766 2.9719.57787l.45404-1.2796c-1.1764-.33021-2.4147-.53659-3.426-.53659z"/>
   <path d="m500.88 585.55v5.8819c0 3.7768 1.0938 4.8294 4.107 4.8294 1.2383 0 3.0545-.30957 4.2102-.82553v-9.8858h-1.3415v9.0602c-.8049.2683-1.6304.37149-2.6417.37149-2.3321 0-2.9926-.63979-2.9926-3.8181v-5.6136z"/>
   <path d="m512.33 581.07v12.3c0 1.5272.43341 2.2083 1.3002 3.0338l1.0319-.86681c-.76362-.76362-.99064-1.2383-.99064-2.2496v-12.218z"/>
   <path d="m518.8 582.8-1.3415.55723v2.1877h-1.8368v1.2383h1.8368v5.6962c0 3.0751.90808 3.7768 3.2815 3.7768.74298 0 1.6923-.18574 2.2908-.39213l-.30957-1.197c-.55723.20639-1.2383.30958-1.9813.30958-1.4653 0-1.94-.74298-1.94-2.5179v-5.6755h3.8594v-1.2383h-3.8594z"/>
   <path d="m528.74 585.26c-1.4034 0-2.6624.28893-3.4672.51596l.39213 1.2589c.82553-.35085 2.0019-.49532 2.9926-.49532 2.4147 0 3.0751.5366 3.0751 3.0958-1.0732-.22702-1.8781-.33021-2.9719-.33021-2.3321 0-4.1277.47468-4.1277 3.4466 0 2.7036 1.2383 3.5085 4.2309 3.5085 1.3208 0 3.0751-.30957 4.2102-.82553v-6.1296c0-3.1577-1.3002-4.0451-4.334-4.0451zm.18574 5.2421c1.0319 0 2.0432.0826 2.8068.2683v3.7974c-.80489.28894-1.7955.47468-2.8068.47468-2.1877 0-2.7862-.30957-2.7862-2.394 0-1.9194.7017-2.1464 2.7862-2.1464z"/>
   <path d="m540.44 585.26c-1.2589 0-3.0751.30957-4.2102.82553v9.8858h1.3415v-9.0809c.8049-.24766 1.6098-.35085 2.6211-.35085 2.3528 0 3.0132.63979 3.0132 3.8181v5.6136h1.3415v-5.8819c0-3.7974-1.0938-4.8294-4.107-4.8294z"/>
   <path d="m552.45 585.26c-3.2196 0-5.0358 1.197-5.0358 5.4485 0 4.2721 1.7955 5.5517 5.0358 5.5517.88745 0 2.1877-.22702 2.9719-.57787l-.43341-1.2383c-.74298.33021-1.6511.5366-2.5385.5366-2.4353 0-3.5498-.84617-3.5498-4.2309 0-3.5498 1.1145-4.2102 3.5498-4.2102.86681 0 1.7955.14447 2.5385.49532l.43341-1.2589c-.74298-.28894-2.1051-.51596-2.9719-.51596z"/>
   <path d="m556.26 585.55c1.3828 2.8481 2.7862 7.2028 3.8387 10.918-.51596 1.1351-1.1557 2.4766-1.6923 3.4672h1.5685c2.3115-4.4372 4.334-9.6587 5.7581-14.385h-1.4653c-.82553 2.9926-2.0226 6.1915-3.2815 9.2253-.88745-3.0957-2.1051-6.7074-3.2196-9.2253z"/>
  </g>
  <g fill="#3f3f3f">
   <path d="m339.97 497.47c0 5.003-1.443 5.85-6.018 5.85-4.667 0-6.106-.847-6.106-5.85 0-4.493 1.439-5.17 6.106-5.17 4.574 0 6.018.677 6.018 5.17zm-.851 43.816c0 6.675 3.22 10.186 3.22 10.186s-4.273 3.37-7.565 3.37c-4.327 0-6.168-7.773-6.168-10.987v-33.584h10.514c-.001-.001-.001 24.345-.001 31.015z"/>
   <path d="m465.38 497.47c0 5.003-1.443 5.85-6.021 5.85-4.665 0-6.104-.847-6.104-5.85 0-4.493 1.439-5.17 6.104-5.17 4.578 0 6.021.677 6.021 5.17zm-.851 43.816c0 6.675 3.216 10.186 3.216 10.186s-4.271 3.37-7.562 3.37c-4.325 0-6.169-7.773-6.169-10.987v-33.584h10.515v31.015z"/>
   <path d="m363.2 554.44c-11.87 0-18.145-4.919-18.145-22.471 0-17.632 6.529-22.973 20.771-22.973 4.582 0 10.146.664 14.606 1.849 4.589 1.221 4.216 5.021 4.216 5.021v34.244c0 16.869-9.408 20.606-23.058 20.606-3.313 0-7.373-.449-10.785-1.272-4.454-1.077-2.848-7.456-2.848-7.456l.574-2.294c3.984 1.271 8.9 2.118 12.971 2.118 7.973 0 12.632-2.208 12.632-10.173-2.37 1.439-6.018 2.801-10.934 2.801zm10.935-33.363s.229-2.146-2.57-2.758c-1.908-.417-3.958-.675-5.738-.675-7.457 0-9.916 1.948-9.916 14.241 0 10.767 2.286 13.482 9.661 13.482 4.663 0 8.563-1.445 8.563-4.07z"/>
   <path d="m445.94 498.69v42.61c0 4.152.934 7.037 3.306 10.174 0 0-8.102 6.646-11.206 1.285-1.675-2.886-2.615-6.332-2.615-11.036v-49.511h4.34c6.647.001 6.175 6.478 6.175 6.478z"/>
   <path d="m507.91 547.52s0 3.813-4.399 5.097c-4.818 1.405-10.559 1.992-15.101 1.992-13.646 0-18.229-3.134-18.229-14.41 0-12.21 6.869-14.159 16.957-14.159 3.647 0 7.038.42 10.683 1.185 0-7.541-1.78-9.408-10.769-9.408-2.513 0-5.028.221-7.358.65-6.097 1.112-6.767-3.272-6.767-3.272l-.881-3.905c2.346-.617 5.233-1.213 8.34-1.644 2.859-.394 5.905-.645 8.874-.645 12.8 0 18.649 3.898 18.649 16.786v21.733zm-10.089-4.468v-8.704c-2.374-.51-5.427-.763-8.561-.763-5.936 0-8.059.68-8.059 6.188 0 5.849 1.611 6.784 7.973 6.784 2.207 0 4.465-.313 6.477-.807 2.23-.528 2.17-2.698 2.17-2.698z"/>
   <path d="m428.22 547.52s.002 3.813-4.399 5.097c-4.815 1.405-10.555 1.992-15.101 1.992-13.647 0-18.225-3.134-18.225-14.41 0-12.21 6.863-14.159 16.953-14.159 3.647 0 7.039.42 10.683 1.185 0-7.541-1.778-9.408-10.767-9.408-2.511 0-5.025.221-7.36.65-6.097 1.112-6.763-3.272-6.763-3.272l-.883-3.905c2.338-.617 5.229-1.213 8.34-1.644 2.857-.394 5.903-.645 8.872-.645 12.8 0 18.649 3.898 18.649 16.786v21.733zm-10.089-4.468v-8.704c-2.374-.51-5.426-.763-8.561-.763-5.936 0-8.056.68-8.056 6.188 0 5.849 1.61 6.784 7.969 6.784 2.21 0 4.468-.313 6.478-.807 2.231-.528 2.17-2.698 2.17-2.698z"/>
  </g>
 </g>
</svg>
