<?xml version="1.0" encoding="UTF-8"?>
<!DOCTYPE svg PUBLIC "-//W3C//DTD SVG 1.1//EN" "http://www.w3.org/Graphics/SVG/1.1/DTD/svg11.dtd">
<svg xmlns="http://www.w3.org/2000/svg" xmlns:xlink="http://www.w3.org/1999/xlink" version="1.1" width="1554px" height="1046px" viewBox="-0.5 -0.5 1554 1046" animation="{&quot;script&quot;:[],&quot;className&quot;:[],&quot;isText&quot;:[],&quot;isGroup&quot;:[]}"><defs><style type="text/css">ul { margin-top: 0px; margin-bottom: 10px; }&#xa;ol { margin-top: 0px; margin-bottom: 10px; }&#xa;.h1, .h2, .h3, .h4, .h5, .h6, h1, h2, h3, h4, h5, h6 { margin-bottom: .5rem; font-weight: 500; line-height: 1.2; }&#xa;h1, h2, h3, h4, h5, h6 { margin-top: 0; margin-bottom: .5rem; }&#xa;.h1, h1 { font-size: 2.5rem; }&#xa;h2 { font-size: 1.5em; font-weight: bold; }&#xa;h3 { font-size: 1.17em; font-weight: bold; }&#xa;.h4, h4 { font-size: 1.5rem; }&#xa;.h5, h5 { font-size: 1.25rem; }&#xa;.h6, h6 { font-size: 1rem; }&#xa;p { margin-top: 0; margin-bottom: 1rem; }&#xa;ul { margin-top: 0px; margin-bottom: 10px; }&#xa;ol { margin-top: 0px; margin-bottom: 10px; }&#xa;.h1, .h2, .h3, .h4, .h5, .h6, h1, h2, h3, h4, h5, h6 { margin-bottom: .5rem; font-weight: 500; line-height: 1.2; }&#xa;h1, h2, h3, h4, h5, h6 { margin-top: 0; margin-bottom: .5rem; }&#xa;.h1, h1 { font-size: 2.5rem; }&#xa;h2 { font-size: 1.5em; font-weight: bold; }&#xa;h3 { font-size: 1.17em; font-weight: bold; }&#xa;.h4, h4 { font-size: 1.5rem; }&#xa;.h5, h5 { font-size: 1.25rem; }&#xa;.h6, h6 { font-size: 1rem; }&#xa;p { margin-top: 0; margin-bottom: 1rem; }&#xa;ul { margin-top: 0px; margin-bottom: 10px; }&#xa;ol { margin-top: 0px; margin-bottom: 10px; }&#xa;.h1, .h2, .h3, .h4, .h5, .h6, h1, h2, h3, h4, h5, h6 { margin-bottom: .5rem; font-weight: 500; line-height: 1.2; }&#xa;h1, h2, h3, h4, h5, h6 { margin-top: 0; margin-bottom: .5rem; }&#xa;.h1, h1 { font-size: 2.5rem; }&#xa;h2 { font-size: 1.5em; font-weight: bold; }&#xa;h3 { font-size: 1.17em; font-weight: bold; }&#xa;.h4, h4 { font-size: 1.5rem; }&#xa;.h5, h5 { font-size: 1.25rem; }&#xa;.h6, h6 { font-size: 1rem; }&#xa;p { margin-top: 0; margin-bottom: 1rem; }&#xa;</style></defs><g><rect cell-id="K7dCt4-lQAVaZnvAIKzY-1" x="630" y="197" width="272" height="64" fill="#7acff5" stroke="#000000" pointer-events="all"/><path cell-id="K7dCt4-lQAVaZnvAIKzY-1" d="M 630 221 L 902 221" fill="none" stroke="#000000" stroke-miterlimit="10" pointer-events="all"/><g cell-id="K7dCt4-lQAVaZnvAIKzY-1" fill="#000000" font-family="Helvetica" font-weight="bold" text-anchor="middle" font-size="18px"><text cell-id="K7dCt4-lQAVaZnvAIKzY-1" x="765.5" y="214.5">RenderLayerModelObject</text></g><rect cell-id="2" x="630" y="224" width="272" height="16" fill="none" stroke="none" pointer-events="all"/><g cell-id="2" fill="#000000" font-family="Helvetica" text-anchor="middle" font-size="12px"><text cell-id="2" x="768" y="236.5">Base class for renderers that create layers.</text></g><rect cell-id="3" x="630" y="240" width="272" height="16" fill="none" stroke="none" pointer-events="all"/><g cell-id="3" fill="#000000" font-family="Helvetica" text-anchor="middle" font-size="12px"><text cell-id="3" x="768" y="252.5">Only used by RenderBoxModelObject at present.</text></g><rect cell-id="K7dCt4-lQAVaZnvAIKzY-32" x="181" y="552" width="254" height="46" fill="#7acff5" stroke="#000000" pointer-events="all"/><path cell-id="K7dCt4-lQAVaZnvAIKzY-32" d="M 181 571 L 435 571" fill="none" stroke="#000000" stroke-miterlimit="10" pointer-events="all"/><g cell-id="K7dCt4-lQAVaZnvAIKzY-32" fill="#000000" font-family="Helvetica" font-weight="bold" text-anchor="middle" font-size="14px"><text cell-id="K7dCt4-lQAVaZnvAIKzY-32" x="307.5" y="565.5">RenderBox</text></g><rect cell-id="4" x="181" y="574" width="254" height="16" fill="none" stroke="none" pointer-events="all"/><g cell-id="4" fill="#000000" font-family="Helvetica" text-anchor="middle" font-size="12px"><text cell-id="4" x="310" y="586.5">Base class for non-inline boxes / elements.</text></g><rect cell-id="K7dCt4-lQAVaZnvAIKzY-36" x="407" y="346" width="223" height="64" fill="#7acff5" stroke="#000000" pointer-events="all"/><path cell-id="K7dCt4-lQAVaZnvAIKzY-36" d="M 407 370 L 630 370" fill="none" stroke="#000000" stroke-miterlimit="10" pointer-events="all"/><g cell-id="K7dCt4-lQAVaZnvAIKzY-36" fill="#000000" font-family="Helvetica" font-weight="bold" text-anchor="middle" font-size="18px"><text cell-id="K7dCt4-lQAVaZnvAIKzY-36" x="518" y="363.5">RenderBoxModelObject</text></g><rect cell-id="5" x="407" y="373" width="223" height="16" fill="none" stroke="none" pointer-events="all"/><g cell-id="5" fill="#000000" font-family="Helvetica" text-anchor="middle" font-size="12px"><text cell-id="5" x="520.5" y="385.5">Base class for renderers that adhere</text></g><rect cell-id="6" x="407" y="389" width="223" height="16" fill="none" stroke="none" pointer-events="all"/><g cell-id="6" fill="#000000" font-family="Helvetica" text-anchor="middle" font-size="12px"><text cell-id="6" x="520.5" y="401.5">to the CSS box model object.</text></g><path cell-id="K7dCt4-lQAVaZnvAIKzY-39" d="M 698 274.12 L 698 293.5 Q 698 303.5 688 303.5 L 528.5 303.5 Q 518.5 303.5 518.5 313.5 L 518.5 346" fill="none" stroke="#000000" stroke-miterlimit="10" pointer-events="stroke"/><path cell-id="K7dCt4-lQAVaZnvAIKzY-39" d="M 698 262.12 L 704 274.12 L 692 274.12 Z" fill="none" stroke="#000000" stroke-miterlimit="10" pointer-events="all"/><rect cell-id="K7dCt4-lQAVaZnvAIKzY-42" x="675" y="92" width="182" height="64" fill="#7acff5" stroke="#000000" pointer-events="all"/><path cell-id="K7dCt4-lQAVaZnvAIKzY-42" d="M 675 116 L 857 116" fill="none" stroke="#000000" stroke-miterlimit="10" pointer-events="all"/><g cell-id="K7dCt4-lQAVaZnvAIKzY-42" fill="#000000" font-family="Helvetica" font-weight="bold" text-anchor="middle" font-size="18px"><text cell-id="K7dCt4-lQAVaZnvAIKzY-42" x="765.5" y="109.5">RenderElement</text></g><rect cell-id="7" x="675" y="119" width="182" height="16" fill="none" stroke="none" pointer-events="all"/><g cell-id="7" fill="#000000" font-family="Helvetica" text-anchor="middle" font-size="12px"><text cell-id="7" x="768" y="131.5">Base class for renderers that</text></g><rect cell-id="8" x="675" y="135" width="182" height="16" fill="none" stroke="none" pointer-events="all"/><g cell-id="8" fill="#000000" font-family="Helvetica" text-anchor="middle" font-size="12px"><text cell-id="8" x="768" y="147.5">operate on DOM Elements</text></g><rect cell-id="K7dCt4-lQAVaZnvAIKzY-51" x="677" y="0" width="178" height="50" fill="#7acff5" stroke="#000000" pointer-events="all"/><path cell-id="K7dCt4-lQAVaZnvAIKzY-51" d="M 677 24 L 855 24" fill="none" stroke="#000000" stroke-miterlimit="10" pointer-events="all"/><g cell-id="K7dCt4-lQAVaZnvAIKzY-51" fill="#000000" font-family="Helvetica" font-weight="bold" text-anchor="middle" font-size="18px"><text cell-id="K7dCt4-lQAVaZnvAIKzY-51" x="765.5" y="17.5">RenderObject</text></g><rect cell-id="9" x="677" y="29" width="182" height="16" fill="none" stroke="none" pointer-events="all"/><g cell-id="9" fill="#000000" font-family="Helvetica" text-anchor="middle" font-size="12px"><text cell-id="9" x="770" y="41.5">Base class for all renderers.</text></g><rect cell-id="K7dCt4-lQAVaZnvAIKzY-53" x="630" y="552" width="202" height="46" fill="#7acff5" stroke="#000000" pointer-events="all"/><path cell-id="K7dCt4-lQAVaZnvAIKzY-53" d="M 630 571 L 832 571" fill="none" stroke="#000000" stroke-miterlimit="10" pointer-events="all"/><g cell-id="K7dCt4-lQAVaZnvAIKzY-53" fill="#000000" font-family="Helvetica" font-weight="bold" text-anchor="middle" font-size="14px"><text cell-id="K7dCt4-lQAVaZnvAIKzY-53" x="730.5" y="565.5">RenderInline</text></g><rect cell-id="10" x="630" y="576" width="206" height="16" fill="none" stroke="none" pointer-events="all"/><g cell-id="10" fill="#000000" font-family="Helvetica" text-anchor="middle" font-size="12px"><text cell-id="10" x="735" y="588.5">Base class for CSS inline boxes.</text></g><path cell-id="K7dCt4-lQAVaZnvAIKzY-59" d="M 574 423.12 L 574 471 Q 574 481 584 481 L 721 481 Q 731 481 731 491 L 731 552" fill="none" stroke="#000000" stroke-miterlimit="10" pointer-events="stroke"/><path cell-id="K7dCt4-lQAVaZnvAIKzY-59" d="M 574 411.12 L 580 423.12 L 568 423.12 Z" fill="none" stroke="#000000" stroke-miterlimit="10" pointer-events="all"/><path cell-id="K7dCt4-lQAVaZnvAIKzY-61" d="M 463 423.12 L 463 471 Q 463 481 453 481 L 318 481 Q 308 481 308 491 L 308 552" fill="none" stroke="#000000" stroke-miterlimit="10" pointer-events="stroke"/><path cell-id="K7dCt4-lQAVaZnvAIKzY-61" d="M 463 411.12 L 469 423.12 L 457 423.12 Z" fill="none" stroke="#000000" stroke-miterlimit="10" pointer-events="all"/><rect cell-id="K7dCt4-lQAVaZnvAIKzY-65" x="1093" y="346" width="223" height="64" fill="#91ead2" stroke="#64b19c" pointer-events="all"/><path cell-id="K7dCt4-lQAVaZnvAIKzY-65" d="M 1093 370 L 1316 370" fill="none" stroke="#64b19c" stroke-miterlimit="10" pointer-events="all"/><g cell-id="K7dCt4-lQAVaZnvAIKzY-65" fill="#000000" font-family="Helvetica" font-weight="bold" text-anchor="middle" font-size="18px"><text cell-id="K7dCt4-lQAVaZnvAIKzY-65" x="1204" y="363.5">RenderSVGModelObject</text></g><rect cell-id="11" x="1093" y="375" width="227" height="16" fill="none" stroke="none" pointer-events="all"/><g cell-id="11" fill="#000000" font-family="Helvetica" text-anchor="middle" font-size="12px"><text cell-id="11" x="1208.5" y="387.5">Base class for renderers that adhere</text></g><rect cell-id="12" x="1093" y="391" width="227" height="16" fill="none" stroke="none" pointer-events="all"/><g cell-id="12" fill="#000000" font-family="Helvetica" text-anchor="middle" font-size="12px"><text cell-id="12" x="1208.5" y="403.5">to the SVG painting model.</text></g><rect cell-id="K7dCt4-lQAVaZnvAIKzY-84" x="950" y="493" width="143" height="46" fill="#91ead2" stroke="#64b19c" pointer-events="all"/><path cell-id="K7dCt4-lQAVaZnvAIKzY-84" d="M 950 512 L 1093 512" fill="none" stroke="#64b19c" stroke-miterlimit="10" pointer-events="all"/><g cell-id="K7dCt4-lQAVaZnvAIKzY-84" fill="#000000" font-family="Helvetica" font-weight="bold" text-anchor="middle" font-size="14px"><text cell-id="K7dCt4-lQAVaZnvAIKzY-84" x="1021" y="506.5">RenderSVGImage</text></g><rect cell-id="15" x="950" y="517" width="147" height="16" fill="none" stroke="none" pointer-events="all"/><g cell-id="15" fill="#000000" font-family="Helvetica" text-anchor="middle" font-size="12px"><text cell-id="15" x="1025.5" y="529.5">&lt;image&gt; element</text></g><rect cell-id="K7dCt4-lQAVaZnvAIKzY-86" x="1118.5" y="492" width="172" height="46" fill="#91ead2" stroke="#64b19c" pointer-events="all"/><path cell-id="K7dCt4-lQAVaZnvAIKzY-86" d="M 1118.5 511 L 1290.5 511" fill="none" stroke="#64b19c" stroke-miterlimit="10" pointer-events="all"/><g cell-id="K7dCt4-lQAVaZnvAIKzY-86" fill="#000000" font-family="Helvetica" font-weight="bold" text-anchor="middle" font-size="14px"><text cell-id="K7dCt4-lQAVaZnvAIKzY-86" x="1204" y="505.5">RenderSVGShape</text></g><rect cell-id="16" x="1118.5" y="514" width="172" height="16" fill="none" stroke="none" pointer-events="all"/><g cell-id="16" fill="#000000" font-family="Helvetica" text-anchor="middle" font-size="12px"><text cell-id="16" x="1206.5" y="526.5">&lt;line&gt;, &lt;rect&gt;, &lt;path&gt;, etc.</text></g><rect cell-id="K7dCt4-lQAVaZnvAIKzY-88" x="1316" y="493" width="172" height="46" fill="#91ead2" stroke="#64b19c" pointer-events="all"/><path cell-id="K7dCt4-lQAVaZnvAIKzY-88" d="M 1316 512 L 1488 512" fill="none" stroke="#64b19c" stroke-miterlimit="10" pointer-events="all"/><g cell-id="K7dCt4-lQAVaZnvAIKzY-88" fill="#000000" font-family="Helvetica" font-weight="bold" text-anchor="middle" font-size="14px"><text cell-id="K7dCt4-lQAVaZnvAIKzY-88" x="1401.5" y="506.5">RenderSVGContainer</text></g><rect cell-id="17" x="1316" y="517" width="176" height="16" fill="none" stroke="none" pointer-events="all"/><g cell-id="17" fill="#000000" font-family="Helvetica" text-anchor="middle" font-size="12px"><text cell-id="17" x="1406" y="529.5">&lt;g&gt;, &lt;defs&gt;, etc.</text></g><path cell-id="CZGKY-8vjGUPKcJVElz8-18" d="M 1116 422.12 L 1116 441.5 Q 1116 451.5 1106 451.5 L 1032 451.5 Q 1022 451.5 1022 461.5 L 1022 493" fill="none" stroke="#000000" stroke-miterlimit="10" pointer-events="stroke"/><path cell-id="CZGKY-8vjGUPKcJVElz8-18" d="M 1116 410.12 L 1122 422.12 L 1110 422.12 Z" fill="none" stroke="#000000" stroke-miterlimit="10" pointer-events="all"/><path cell-id="CZGKY-8vjGUPKcJVElz8-19" d="M 1204.5 423.12 L 1204.5 492" fill="none" stroke="#000000" stroke-miterlimit="10" pointer-events="stroke"/><path cell-id="CZGKY-8vjGUPKcJVElz8-19" d="M 1204.5 411.12 L 1210.5 423.12 L 1198.5 423.12 Z" fill="none" stroke="#000000" stroke-miterlimit="10" pointer-events="all"/><path cell-id="CZGKY-8vjGUPKcJVElz8-20" d="M 1286 422.12 L 1286 441.5 Q 1286 451.5 1296 451.5 L 1392 451.5 Q 1402 451.5 1402 461.5 L 1402 493" fill="none" stroke="#000000" stroke-miterlimit="10" pointer-events="stroke"/><path cell-id="CZGKY-8vjGUPKcJVElz8-20" d="M 1286 410.12 L 1292 422.12 L 1280 422.12 Z" fill="none" stroke="#000000" stroke-miterlimit="10" pointer-events="all"/><rect cell-id="CZGKY-8vjGUPKcJVElz8-27" x="566" y="805" width="146" height="46" fill="#91ead2" stroke="#64b19c" pointer-events="all"/><path cell-id="CZGKY-8vjGUPKcJVElz8-27" d="M 566 824 L 712 824" fill="none" stroke="#64b19c" stroke-miterlimit="10" pointer-events="all"/><g cell-id="CZGKY-8vjGUPKcJVElz8-27" fill="#000000" font-family="Helvetica" font-weight="bold" text-anchor="middle" font-size="14px"><text cell-id="CZGKY-8vjGUPKcJVElz8-27" x="638.5" y="818.5">RenderSVGTSpan</text></g><rect cell-id="CZGKY-8vjGUPKcJVElz8-28" x="566" y="829" width="150" height="16" fill="none" stroke="none" pointer-events="all"/><g cell-id="CZGKY-8vjGUPKcJVElz8-28" fill="#000000" font-family="Helvetica" text-anchor="middle" font-size="12px"><text cell-id="CZGKY-8vjGUPKcJVElz8-28" x="643" y="841.5">&lt;tspan&gt; element</text></g><rect cell-id="CZGKY-8vjGUPKcJVElz8-29" x="752" y="805" width="160" height="46" fill="#91ead2" stroke="#64b19c" pointer-events="all"/><path cell-id="CZGKY-8vjGUPKcJVElz8-29" d="M 752 824 L 912 824" fill="none" stroke="#64b19c" stroke-miterlimit="10" pointer-events="all"/><g cell-id="CZGKY-8vjGUPKcJVElz8-29" fill="#000000" font-family="Helvetica" font-weight="bold" text-anchor="middle" font-size="14px"><text cell-id="CZGKY-8vjGUPKcJVElz8-29" x="831.5" y="818.5">RenderSVGTextPath</text></g><rect cell-id="CZGKY-8vjGUPKcJVElz8-30" x="752" y="829" width="164" height="16" fill="none" stroke="none" pointer-events="all"/><g cell-id="CZGKY-8vjGUPKcJVElz8-30" fill="#000000" font-family="Helvetica" text-anchor="middle" font-size="12px"><text cell-id="CZGKY-8vjGUPKcJVElz8-30" x="836" y="841.5">&lt;textPath&gt; element</text></g><rect cell-id="CZGKY-8vjGUPKcJVElz8-31" x="48" y="697" width="235" height="46" fill="#7acff5" stroke="#000000" pointer-events="all"/><path cell-id="CZGKY-8vjGUPKcJVElz8-31" d="M 48 716 L 283 716" fill="none" stroke="#000000" stroke-miterlimit="10" pointer-events="all"/><g cell-id="CZGKY-8vjGUPKcJVElz8-31" fill="#000000" font-family="Helvetica" font-weight="bold" text-anchor="middle" font-size="14px"><text cell-id="CZGKY-8vjGUPKcJVElz8-31" x="165" y="710.5">RenderBlock</text></g><rect cell-id="CZGKY-8vjGUPKcJVElz8-32" x="48" y="721" width="239" height="16" fill="none" stroke="none" pointer-events="all"/><g cell-id="CZGKY-8vjGUPKcJVElz8-32" fill="#000000" font-family="Helvetica" text-anchor="middle" font-size="12px"><text cell-id="CZGKY-8vjGUPKcJVElz8-32" x="169.5" y="733.5">Base class for CSS block-level elements.</text></g><rect cell-id="CZGKY-8vjGUPKcJVElz8-33" x="48" y="805" width="235" height="46" fill="#7acff5" stroke="#000000" pointer-events="all"/><path cell-id="CZGKY-8vjGUPKcJVElz8-33" d="M 48 824 L 283 824" fill="none" stroke="#000000" stroke-miterlimit="10" pointer-events="all"/><g cell-id="CZGKY-8vjGUPKcJVElz8-33" fill="#000000" font-family="Helvetica" font-weight="bold" text-anchor="middle" font-size="14px"><text cell-id="CZGKY-8vjGUPKcJVElz8-33" x="165" y="818.5">RenderBlockFlow</text></g><rect cell-id="CZGKY-8vjGUPKcJVElz8-34" x="48" y="827" width="235" height="16" fill="none" stroke="none" pointer-events="all"/><g cell-id="CZGKY-8vjGUPKcJVElz8-34" fill="#000000" font-family="Helvetica" text-anchor="middle" font-size="12px"><text cell-id="CZGKY-8vjGUPKcJVElz8-34" x="167.5" y="839.5">Contains either block or inline children.</text></g><rect cell-id="CZGKY-8vjGUPKcJVElz8-50" x="0" y="989" width="124" height="46" fill="#91ead2" stroke="#64b19c" pointer-events="all"/><path cell-id="CZGKY-8vjGUPKcJVElz8-50" d="M 0 1008 L 124 1008" fill="none" stroke="#64b19c" stroke-miterlimit="10" pointer-events="all"/><g cell-id="CZGKY-8vjGUPKcJVElz8-50" fill="#000000" font-family="Helvetica" font-weight="bold" text-anchor="middle" font-size="14px"><text cell-id="CZGKY-8vjGUPKcJVElz8-50" x="61.5" y="1002.5">RenderSVGText</text></g><rect cell-id="CZGKY-8vjGUPKcJVElz8-51" x="0" y="1011" width="124" height="16" fill="none" stroke="none" pointer-events="all"/><g cell-id="CZGKY-8vjGUPKcJVElz8-51" fill="#000000" font-family="Helvetica" text-anchor="middle" font-size="12px"><text cell-id="CZGKY-8vjGUPKcJVElz8-51" x="64" y="1023.5">&lt;text&gt; element</text></g><rect cell-id="CZGKY-8vjGUPKcJVElz8-52" x="156" y="989" width="198" height="46" fill="#91ead2" stroke="#64b19c" pointer-events="all"/><path cell-id="CZGKY-8vjGUPKcJVElz8-52" d="M 156 1008 L 354 1008" fill="none" stroke="#64b19c" stroke-miterlimit="10" pointer-events="all"/><g cell-id="CZGKY-8vjGUPKcJVElz8-52" fill="#000000" font-family="Helvetica" font-weight="bold" text-anchor="middle" font-size="14px"><text cell-id="CZGKY-8vjGUPKcJVElz8-52" x="254.5" y="1002.5">RenderSVGForeignObject</text></g><rect cell-id="CZGKY-8vjGUPKcJVElz8-53" x="156" y="1011" width="198" height="16" fill="none" stroke="none" pointer-events="all"/><g cell-id="CZGKY-8vjGUPKcJVElz8-53" fill="#000000" font-family="Helvetica" text-anchor="middle" font-size="12px"><text cell-id="CZGKY-8vjGUPKcJVElz8-53" x="257" y="1023.5">&lt;foreignObject&gt; element</text></g><rect cell-id="CZGKY-8vjGUPKcJVElz8-54" x="329" y="697" width="237" height="46" fill="#7acff5" stroke="#000000" pointer-events="all"/><path cell-id="CZGKY-8vjGUPKcJVElz8-54" d="M 329 716 L 566 716" fill="none" stroke="#000000" stroke-miterlimit="10" pointer-events="all"/><g cell-id="CZGKY-8vjGUPKcJVElz8-54" fill="#000000" font-family="Helvetica" font-weight="bold" text-anchor="middle" font-size="14px"><text cell-id="CZGKY-8vjGUPKcJVElz8-54" x="447" y="710.5">RenderReplaced</text></g><rect cell-id="CZGKY-8vjGUPKcJVElz8-55" x="329" y="721" width="241" height="16" fill="none" stroke="none" pointer-events="all"/><g cell-id="CZGKY-8vjGUPKcJVElz8-55" fill="#000000" font-family="Helvetica" text-anchor="middle" font-size="12px"><text cell-id="CZGKY-8vjGUPKcJVElz8-55" x="451.5" y="733.5">Base class for CSS replaced elements.</text></g><rect cell-id="CZGKY-8vjGUPKcJVElz8-56" x="367.5" y="803" width="160" height="46" fill="#91ead2" stroke="#64b19c" pointer-events="all"/><path cell-id="CZGKY-8vjGUPKcJVElz8-56" d="M 367.5 822 L 527.5 822" fill="none" stroke="#64b19c" stroke-miterlimit="10" pointer-events="all"/><g cell-id="CZGKY-8vjGUPKcJVElz8-56" fill="#000000" font-family="Helvetica" font-weight="bold" text-anchor="middle" font-size="14px"><text cell-id="CZGKY-8vjGUPKcJVElz8-56" x="447" y="816.5">RenderSVGRoot</text></g><rect cell-id="CZGKY-8vjGUPKcJVElz8-57" x="367.5" y="825" width="160" height="16" fill="none" stroke="none" pointer-events="all"/><g cell-id="CZGKY-8vjGUPKcJVElz8-57" fill="#000000" font-family="Helvetica" text-anchor="middle" font-size="12px"><text cell-id="CZGKY-8vjGUPKcJVElz8-57" x="449.5" y="837.5">Outermost &lt;svg&gt; element</text></g><rect cell-id="CZGKY-8vjGUPKcJVElz8-58" x="48" y="892" width="235" height="59" fill="#91ead2" stroke="#000000" pointer-events="all"/><path cell-id="CZGKY-8vjGUPKcJVElz8-58" d="M 48 911 L 283 911" fill="none" stroke="#000000" stroke-miterlimit="10" pointer-events="all"/><g cell-id="CZGKY-8vjGUPKcJVElz8-58" fill="#000000" font-family="Helvetica" font-weight="bold" text-anchor="middle" font-size="14px"><text cell-id="CZGKY-8vjGUPKcJVElz8-58" x="165" y="905.5">RenderSVGBlock</text></g><rect cell-id="CZGKY-8vjGUPKcJVElz8-59" x="48" y="914" width="235" height="16" fill="none" stroke="none" pointer-events="all"/><g cell-id="CZGKY-8vjGUPKcJVElz8-59" fill="#000000" font-family="Helvetica" text-anchor="middle" font-size="12px"><text cell-id="CZGKY-8vjGUPKcJVElz8-59" x="167.5" y="926.5">Base class for SVG renderers that</text></g><rect cell-id="CZGKY-8vjGUPKcJVElz8-60" x="48" y="930" width="235" height="16" fill="none" stroke="none" pointer-events="all"/><g cell-id="CZGKY-8vjGUPKcJVElz8-60" fill="#000000" font-family="Helvetica" text-anchor="middle" font-size="12px"><text cell-id="CZGKY-8vjGUPKcJVElz8-60" x="167.5" y="942.5">behave like CSS block-level elements.</text></g><rect cell-id="CZGKY-8vjGUPKcJVElz8-61" x="616" y="697" width="230" height="59" fill="#91ead2" stroke="#64b19c" pointer-events="all"/><path cell-id="CZGKY-8vjGUPKcJVElz8-61" d="M 616 716 L 846 716" fill="none" stroke="#64b19c" stroke-miterlimit="10" pointer-events="all"/><g cell-id="CZGKY-8vjGUPKcJVElz8-61" fill="#000000" font-family="Helvetica" font-weight="bold" text-anchor="middle" font-size="14px"><text cell-id="CZGKY-8vjGUPKcJVElz8-61" x="730.5" y="710.5">RenderSVGInline</text></g><rect cell-id="CZGKY-8vjGUPKcJVElz8-62" x="616" y="719" width="230" height="16" fill="none" stroke="none" pointer-events="all"/><g cell-id="CZGKY-8vjGUPKcJVElz8-62" fill="#000000" font-family="Helvetica" text-anchor="middle" font-size="12px"><text cell-id="CZGKY-8vjGUPKcJVElz8-62" x="733" y="731.5">Base class for SVG renderers that</text></g><rect cell-id="CZGKY-8vjGUPKcJVElz8-63" x="616" y="735" width="230" height="16" fill="none" stroke="none" pointer-events="all"/><g cell-id="CZGKY-8vjGUPKcJVElz8-63" fill="#000000" font-family="Helvetica" text-anchor="middle" font-size="12px"><text cell-id="CZGKY-8vjGUPKcJVElz8-63" x="733" y="747.5">behave like CSS inline-level elements</text></g><path cell-id="CZGKY-8vjGUPKcJVElz8-88" d="M 245 611.12 L 245 637.5 Q 245 647.5 235 647.5 L 176 647.5 Q 166 647.5 166 657.5 L 166 697" fill="none" stroke="#000000" stroke-miterlimit="10" pointer-events="stroke"/><path cell-id="CZGKY-8vjGUPKcJVElz8-88" d="M 245 599.12 L 251 611.12 L 239 611.12 Z" fill="none" stroke="#000000" stroke-miterlimit="10" pointer-events="all"/><path cell-id="CZGKY-8vjGUPKcJVElz8-101" d="M 166 756.12 L 166 765.06 Q 166 774 165.84 784 L 165.5 805" fill="none" stroke="#000000" stroke-miterlimit="10" pointer-events="stroke"/><path cell-id="CZGKY-8vjGUPKcJVElz8-101" d="M 166 744.12 L 172 756.12 L 160 756.12 Z" fill="none" stroke="#000000" stroke-miterlimit="10" pointer-events="all"/><path cell-id="CZGKY-8vjGUPKcJVElz8-111" d="M 372 611.12 L 372 637.5 Q 372 647.5 382 647.5 L 438 647.5 Q 448 647.5 448 657.5 L 448 697" fill="none" stroke="#000000" stroke-miterlimit="10" pointer-events="stroke"/><path cell-id="CZGKY-8vjGUPKcJVElz8-111" d="M 372 599.12 L 378 611.12 L 366 611.12 Z" fill="none" stroke="#000000" stroke-miterlimit="10" pointer-events="all"/><path cell-id="CZGKY-8vjGUPKcJVElz8-115" d="M 448 756.12 L 448 803" fill="none" stroke="#000000" stroke-miterlimit="10" pointer-events="stroke"/><path cell-id="CZGKY-8vjGUPKcJVElz8-115" d="M 448 744.12 L 454 756.12 L 442 756.12 Z" fill="none" stroke="#000000" stroke-miterlimit="10" pointer-events="all"/><path cell-id="CZGKY-8vjGUPKcJVElz8-123" d="M 834 274.12 L 834 293.5 Q 834 303.5 844 303.5 L 1195 303.5 Q 1205 303.5 1205 313.5 L 1205 346" fill="none" stroke="#000000" stroke-miterlimit="10" pointer-events="stroke"/><path cell-id="CZGKY-8vjGUPKcJVElz8-123" d="M 834 262.12 L 840 274.12 L 828 274.12 Z" fill="none" stroke="#000000" stroke-miterlimit="10" pointer-events="all"/><path cell-id="CZGKY-8vjGUPKcJVElz8-126" d="M 674 769.12 L 674 774.81 Q 674 780.5 664 780.5 L 649 780.5 Q 639 780.5 639 790.5 L 639 805" fill="none" stroke="#000000" stroke-miterlimit="10" pointer-events="stroke"/><path cell-id="CZGKY-8vjGUPKcJVElz8-126" d="M 674 757.12 L 680 769.12 L 668 769.12 Z" fill="none" stroke="#000000" stroke-miterlimit="10" pointer-events="all"/><path cell-id="CZGKY-8vjGUPKcJVElz8-127" d="M 789 769.12 L 789 774.81 Q 789 780.5 799 780.5 L 822 780.5 Q 832 780.5 832 790.5 L 832 805" fill="none" stroke="#000000" stroke-miterlimit="10" pointer-events="stroke"/><path cell-id="CZGKY-8vjGUPKcJVElz8-127" d="M 789 757.12 L 795 769.12 L 783 769.12 Z" fill="none" stroke="#000000" stroke-miterlimit="10" pointer-events="all"/><path cell-id="CZGKY-8vjGUPKcJVElz8-128" d="M 166 864.12 L 166 892" fill="none" stroke="#000000" stroke-miterlimit="10" pointer-events="stroke"/><path cell-id="CZGKY-8vjGUPKcJVElz8-128" d="M 166 852.12 L 172 864.12 L 160 864.12 Z" fill="none" stroke="#000000" stroke-miterlimit="10" pointer-events="all"/><path cell-id="CZGKY-8vjGUPKcJVElz8-129" d="M 224 964.12 L 224 967.06 Q 224 970 234 970 L 245 970 Q 255 970 255 979.5 L 255 989" fill="none" stroke="#000000" stroke-miterlimit="10" pointer-events="stroke"/><path cell-id="CZGKY-8vjGUPKcJVElz8-129" d="M 224 952.12 L 230 964.12 L 218 964.12 Z" fill="none" stroke="#000000" stroke-miterlimit="10" pointer-events="all"/><path cell-id="CZGKY-8vjGUPKcJVElz8-130" d="M 99 965.12 L 99 967.56 Q 99 970 89 970 L 72 970 Q 62 970 62 979.5 L 62 989" fill="none" stroke="#000000" stroke-miterlimit="10" pointer-events="stroke"/><path cell-id="CZGKY-8vjGUPKcJVElz8-130" d="M 99 953.12 L 105 965.12 L 93 965.12 Z" fill="none" stroke="#000000" stroke-miterlimit="10" pointer-events="all"/><path cell-id="CZGKY-8vjGUPKcJVElz8-133" d="M 766 63.12 L 766 92" fill="none" stroke="#000000" stroke-miterlimit="10" pointer-events="stroke"/><path cell-id="CZGKY-8vjGUPKcJVElz8-133" d="M 766 51.12 L 772 63.12 L 760 63.12 Z" fill="none" stroke="#000000" stroke-miterlimit="10" pointer-events="all"/><path cell-id="CZGKY-8vjGUPKcJVElz8-134" d="M 766 169.12 L 766 197" fill="none" stroke="#000000" stroke-miterlimit="10" pointer-events="stroke"/><path cell-id="CZGKY-8vjGUPKcJVElz8-134" d="M 766 157.12 L 772 169.12 L 760 169.12 Z" fill="none" stroke="#000000" stroke-miterlimit="10" pointer-events="all"/><path cell-id="CZGKY-8vjGUPKcJVElz8-135" d="M 731 611.12 L 731 697" fill="none" stroke="#000000" stroke-miterlimit="10" pointer-events="stroke"/><path cell-id="CZGKY-8vjGUPKcJVElz8-135" d="M 731 599.12 L 737 611.12 L 725 611.12 Z" fill="none" stroke="#000000" stroke-miterlimit="10" pointer-events="all"/><path cell-id="K7dCt4-lQAVaZnvAIKzY-39" d="M 698 274.12 L 698 293.5 Q 698 303.5 688 303.5 L 528.5 303.5 Q 518.5 303.5 518.5 313.5 L 518.5 346" fill="none" stroke="#000000" stroke-miterlimit="10" pointer-events="stroke"/><path cell-id="K7dCt4-lQAVaZnvAIKzY-39" d="M 698 262.12 L 704 274.12 L 692 274.12 Z" fill="none" stroke="#000000" stroke-miterlimit="10" pointer-events="all"/><path cell-id="K7dCt4-lQAVaZnvAIKzY-59" d="M 574 423.12 L 574 471 Q 574 481 584 481 L 721 481 Q 731 481 731 491 L 731 552" fill="none" stroke="#000000" stroke-miterlimit="10" pointer-events="stroke"/><path cell-id="K7dCt4-lQAVaZnvAIKzY-59" d="M 574 411.12 L 580 423.12 L 568 423.12 Z" fill="none" stroke="#000000" stroke-miterlimit="10" pointer-events="all"/><path cell-id="K7dCt4-lQAVaZnvAIKzY-61" d="M 463 423.12 L 463 471 Q 463 481 453 481 L 318 481 Q 308 481 308 491 L 308 552" fill="none" stroke="#000000" stroke-miterlimit="10" pointer-events="stroke"/><path cell-id="K7dCt4-lQAVaZnvAIKzY-61" d="M 463 411.12 L 469 423.12 L 457 423.12 Z" fill="none" stroke="#000000" stroke-miterlimit="10" pointer-events="all"/><path cell-id="CZGKY-8vjGUPKcJVElz8-18" d="M 1116 422.12 L 1116 441.5 Q 1116 451.5 1106 451.5 L 1032 451.5 Q 1022 451.5 1022 461.5 L 1022 493" fill="none" stroke="#000000" stroke-miterlimit="10" pointer-events="stroke"/><path cell-id="CZGKY-8vjGUPKcJVElz8-18" d="M 1116 410.12 L 1122 422.12 L 1110 422.12 Z" fill="none" stroke="#000000" stroke-miterlimit="10" pointer-events="all"/><path cell-id="CZGKY-8vjGUPKcJVElz8-19" d="M 1204.5 423.12 L 1204.5 492" fill="none" stroke="#000000" stroke-miterlimit="10" pointer-events="stroke"/><path cell-id="CZGKY-8vjGUPKcJVElz8-19" d="M 1204.5 411.12 L 1210.5 423.12 L 1198.5 423.12 Z" fill="none" stroke="#000000" stroke-miterlimit="10" pointer-events="all"/><path cell-id="CZGKY-8vjGUPKcJVElz8-20" d="M 1286 422.12 L 1286 441.5 Q 1286 451.5 1296 451.5 L 1392 451.5 Q 1402 451.5 1402 461.5 L 1402 493" fill="none" stroke="#000000" stroke-miterlimit="10" pointer-events="stroke"/><path cell-id="CZGKY-8vjGUPKcJVElz8-20" d="M 1286 410.12 L 1292 422.12 L 1280 422.12 Z" fill="none" stroke="#000000" stroke-miterlimit="10" pointer-events="all"/><path cell-id="CZGKY-8vjGUPKcJVElz8-88" d="M 245 611.12 L 245 637.5 Q 245 647.5 235 647.5 L 176 647.5 Q 166 647.5 166 657.5 L 166 697" fill="none" stroke="#000000" stroke-miterlimit="10" pointer-events="stroke"/><path cell-id="CZGKY-8vjGUPKcJVElz8-88" d="M 245 599.12 L 251 611.12 L 239 611.12 Z" fill="none" stroke="#000000" stroke-miterlimit="10" pointer-events="all"/><path cell-id="CZGKY-8vjGUPKcJVElz8-101" d="M 166 756.12 L 166 765.06 Q 166 774 165.84 784 L 165.5 805" fill="none" stroke="#000000" stroke-miterlimit="10" pointer-events="stroke"/><path cell-id="CZGKY-8vjGUPKcJVElz8-101" d="M 166 744.12 L 172 756.12 L 160 756.12 Z" fill="none" stroke="#000000" stroke-miterlimit="10" pointer-events="all"/><path cell-id="CZGKY-8vjGUPKcJVElz8-111" d="M 372 611.12 L 372 637.5 Q 372 647.5 382 647.5 L 438 647.5 Q 448 647.5 448 657.5 L 448 697" fill="none" stroke="#000000" stroke-miterlimit="10" pointer-events="stroke"/><path cell-id="CZGKY-8vjGUPKcJVElz8-111" d="M 372 599.12 L 378 611.12 L 366 611.12 Z" fill="none" stroke="#000000" stroke-miterlimit="10" pointer-events="all"/><path cell-id="CZGKY-8vjGUPKcJVElz8-115" d="M 448 756.12 L 448 803" fill="none" stroke="#000000" stroke-miterlimit="10" pointer-events="stroke"/><path cell-id="CZGKY-8vjGUPKcJVElz8-115" d="M 448 744.12 L 454 756.12 L 442 756.12 Z" fill="none" stroke="#000000" stroke-miterlimit="10" pointer-events="all"/><path cell-id="CZGKY-8vjGUPKcJVElz8-123" d="M 834 274.12 L 834 293.5 Q 834 303.5 844 303.5 L 1195 303.5 Q 1205 303.5 1205 313.5 L 1205 346" fill="none" stroke="#000000" stroke-miterlimit="10" pointer-events="stroke"/><path cell-id="CZGKY-8vjGUPKcJVElz8-123" d="M 834 262.12 L 840 274.12 L 828 274.12 Z" fill="none" stroke="#000000" stroke-miterlimit="10" pointer-events="all"/><path cell-id="CZGKY-8vjGUPKcJVElz8-126" d="M 674 769.12 L 674 774.81 Q 674 780.5 664 780.5 L 649 780.5 Q 639 780.5 639 790.5 L 639 805" fill="none" stroke="#000000" stroke-miterlimit="10" pointer-events="stroke"/><path cell-id="CZGKY-8vjGUPKcJVElz8-126" d="M 674 757.12 L 680 769.12 L 668 769.12 Z" fill="none" stroke="#000000" stroke-miterlimit="10" pointer-events="all"/><path cell-id="CZGKY-8vjGUPKcJVElz8-127" d="M 789 769.12 L 789 774.81 Q 789 780.5 799 780.5 L 822 780.5 Q 832 780.5 832 790.5 L 832 805" fill="none" stroke="#000000" stroke-miterlimit="10" pointer-events="stroke"/><path cell-id="CZGKY-8vjGUPKcJVElz8-127" d="M 789 757.12 L 795 769.12 L 783 769.12 Z" fill="none" stroke="#000000" stroke-miterlimit="10" pointer-events="all"/><path cell-id="CZGKY-8vjGUPKcJVElz8-128" d="M 166 864.12 L 166 892" fill="none" stroke="#000000" stroke-miterlimit="10" pointer-events="stroke"/><path cell-id="CZGKY-8vjGUPKcJVElz8-128" d="M 166 852.12 L 172 864.12 L 160 864.12 Z" fill="none" stroke="#000000" stroke-miterlimit="10" pointer-events="all"/><path cell-id="CZGKY-8vjGUPKcJVElz8-129" d="M 224 964.12 L 224 967.06 Q 224 970 234 970 L 245 970 Q 255 970 255 979.5 L 255 989" fill="none" stroke="#000000" stroke-miterlimit="10" pointer-events="stroke"/><path cell-id="CZGKY-8vjGUPKcJVElz8-129" d="M 224 952.12 L 230 964.12 L 218 964.12 Z" fill="none" stroke="#000000" stroke-miterlimit="10" pointer-events="all"/><path cell-id="CZGKY-8vjGUPKcJVElz8-130" d="M 99 965.12 L 99 967.56 Q 99 970 89 970 L 72 970 Q 62 970 62 979.5 L 62 989" fill="none" stroke="#000000" stroke-miterlimit="10" pointer-events="stroke"/><path cell-id="CZGKY-8vjGUPKcJVElz8-130" d="M 99 953.12 L 105 965.12 L 93 965.12 Z" fill="none" stroke="#000000" stroke-miterlimit="10" pointer-events="all"/><path cell-id="CZGKY-8vjGUPKcJVElz8-133" d="M 766 63.12 L 766 92" fill="none" stroke="#000000" stroke-miterlimit="10" pointer-events="stroke"/><path cell-id="CZGKY-8vjGUPKcJVElz8-133" d="M 766 51.12 L 772 63.12 L 760 63.12 Z" fill="none" stroke="#000000" stroke-miterlimit="10" pointer-events="all"/><path cell-id="CZGKY-8vjGUPKcJVElz8-134" d="M 766 169.12 L 766 197" fill="none" stroke="#000000" stroke-miterlimit="10" pointer-events="stroke"/><path cell-id="CZGKY-8vjGUPKcJVElz8-134" d="M 766 157.12 L 772 169.12 L 760 169.12 Z" fill="none" stroke="#000000" stroke-miterlimit="10" pointer-events="all"/><path cell-id="CZGKY-8vjGUPKcJVElz8-135" d="M 731 611.12 L 731 697" fill="none" stroke="#000000" stroke-miterlimit="10" pointer-events="stroke"/><path cell-id="CZGKY-8vjGUPKcJVElz8-135" d="M 731 599.12 L 737 611.12 L 725 611.12 Z" fill="none" stroke="#000000" stroke-miterlimit="10" pointer-events="all"/></g><g fill="#787878" font-family="Arial,Helvetica" font-size="12px"><text pointer-events="none" x="6" y="15">Visual Paradigm Online Free Edition</text></g><g fill="#787878" font-family="Arial,Helvetica" text-anchor="end" font-size="12px"><text pointer-events="none" x="1487" y="1030">Visual Paradigm Online Free Edition</text></g></svg>
