<?xml version="1.0" encoding="UTF-8"?>
<svg viewBox="0 0 358.35886 447.20511" xmlns="http://www.w3.org/2000/svg">
 <g transform="matrix(8.131 0 0 8.131 -3713.5 -3307.9)">
  <path transform="matrix(.96593,-.25882,.25882,.96593,0,0)" d="m332.28 524.51h34.204v42.635h-34.204z" fill="#a40"/>
  <path transform="matrix(.96593,-.25882,.25882,.96593,0,0)" d="m334.89 526.52h28.995v38.202h-28.995z" fill="#fff"/>
  <g transform="matrix(.96593 -.25882 .25882 .96593 -108.99 100.14)" fill="none" stroke="#000" stroke-width="1.6324">
   <path d="m468.18 465.9h13.437"/>
   <path d="m468.18 469.16h13.437"/>
   <path d="m468.18 472.43 13.437 1e-5"/>
   <path d="m468.18 475.69h8.9075"/>
   <path d="m468.18 480.05h13.437"/>
   <path d="m468.18 483.31h13.437"/>
   <path d="m468.18 486.58h13.437"/>
   <path d="m468.18 489.84h13.437"/>
   <path d="m468.18 493.11h9.466"/>
  </g>
  <path d="m470.77 407.03c-3.1809 0.85231-5.07 4.1244-4.2177 7.3053 0.2091 0.78035 0.56938 1.476 1.0328 2.0795l-5.7414 1.5384 1.605 5.9901 22.125-5.9284-1.605-5.9901-5.7414 1.5384c0.09948-0.75423 0.05699-1.5353-0.15206-2.3155-0.85232-3.1809-4.1244-5.07-7.3053-4.2177z" fill="#333"/>
  <path transform="matrix(.96593,-.25882,.25882,.96593,0,0)" d="m353.38 534.38h6.168v6.168h-6.168z" fill="none" stroke="#000" stroke-width="1.3634"/>
  <path d="m481.88409,424.7933c.38299.38344.78652.74567 1.17501,1.12333 .10122.09839.20927.1909.29886.29997 .10902.13276.19549.28253.2947.42277l.39254.54871c.04011.05339.6635.89174.75294.98081 .41852.41674 1.65569.13157-1.02834.94598-.14774.04482.10762-.29065.13891-.44183 .04869-.2353.06682-.4759.10024-.71385 .11661-1.21496.15483-2.44017.38384-3.64188 .14568-.76451.24226-1.03974.45543-1.78728 .34265-1.17697.80012-2.31458 1.22189-3.4641l1.35686-.82472c-.4454,1.14347-.90077,2.28396-1.24509,3.46342-.20906.71475-.3215,1.04134-.46777,1.77257-.23723,1.18593-.28828,2.39862-.34134,3.60357-.01418.23142-.02659.46296-.04256.69428-.01126.16321.07669.37369-.03913.48925-.46052.45948-1.00567.84455-1.58811,1.13431-.09697.04824-.16148-.14576-.22937-.23014-.25797-.32069-.44717-.69333-.72845-.99692-.24724-.30237-.48006-.61637-.72829-.91792-.42955-.52181-.94273-.97801-1.47682-1.38849l1.34405-1.07184z" fill="#0C0"/>
  <path transform="matrix(.96593,-.25882,.25882,.96593,0,0)" d="m353.38 544.38h6.168v6.168h-6.168z" fill="none" stroke="#000" stroke-width="1.3634"/>
  <path d="m489.69365,432.13981-1.2232.93235c-.75012,1.32746-.3679.63971-1.14452,2.0875-.21972.43418-.436.86968-.65027,1.30648-.842-.43683-1.7184-.8128-2.63731-1.06315l-1.11602,1.33234c.21839.03348.43839.04859.65332.09976 .85161.20278 1.64716.60875 2.41295,1.04633-.54759,1.15089-1.07593,2.31002-1.59771,3.47308l1.4056-1.11313c.23555-.68251.50363-1.36108.78756-2.02483 .17203.1034.34305.21084.51268.31333 .75882.48605 1.43396,1.08549 2.16738,1.6068l1.15926-1.21202c-.16134-.10533-.32175-.2002-.47916-.31132-.58158-.41057-1.10062-.89971-1.7135-1.26672-.32635-.19411-.65544-.38619-.98834-.57062 .40026-.84774.82102-1.6895 1.24797-2.52194 .80644-1.46807.4072-.76215 1.20331-2.11424z" fill="#A33"/>
  <path transform="matrix(.96593,-.25882,.25882,.96593,0,0)" d="m353.38 554.37h6.168v6.168h-6.168z" fill="none" stroke="#000" stroke-width="1.3634"/>
  <path d="m486.98754,443.72382c.32427.43423.67191.85039 1.00246,1.27969 .08612.11184.17985.21884.25293.33959 .08894.14697.15312.30757.23128.46054l.31011.59917c.03207.05857.52928.97738.60509,1.07832 .35468.47225 1.6199.36678-1.15296.78934-.15262.02326.14804-.27228.20061-.41744 .08182-.22593.13413-.46147.20121-.69221 .289-1.18584.50188-2.39301.90024-3.54968 .25342-.73585.38833-.99445.70611-1.70387 .5073-1.11594 1.12261-2.17651 1.70429-3.25398l1.46078-.6224c-.6042,1.06811-1.21785,2.13183-1.72716,3.25-.30903.67755-.46698.98472-.71623,1.68755-.40424,1.13987-.62802,2.33283-.85269,3.51783l-.14132.68108c-.03447.15992.02251.38081-.10863.47864-.52144.38897-1.11603.6922-1.73389.89576-.10287.0339-.139-.16732-.19414-.26054-.2095-.35426-.34352-.75011-.57853-1.09077-.20151-.33459-.38707-.67864-.58968-1.01256-.35058-.57782-.79332-1.10267-1.26328-1.58525l1.4834-.86881z" fill="#0C0"/>
 </g>
</svg>