<svg xmlns="http://www.w3.org/2000/svg" width="208.5" height="224.057" viewBox="0 0 208.5 224.057">
  <g id="illustration-resources" transform="translate(-1657 -5296.136)">
    <rect id="Rectangle_235" data-name="Rectangle 235" width="83" height="54" transform="translate(1774 5318)" fill="#fff"/>
    <rect id="Rectangle_236" data-name="Rectangle 236" width="96" height="62" transform="translate(1657 5393)" fill="#fff"/>
    <path id="Path_492" data-name="Path 492" d="M19192,4056.27V3917" transform="translate(-17418.5 1457)" fill="none" stroke="#000" stroke-width="1" stroke-dasharray="5"/>
    <path id="Path_493" data-name="Path 493" d="M19086.729,4040.5V3971H19215v14.812" transform="translate(-17358 1331.5)" fill="none" stroke="#000" stroke-width="1" stroke-dasharray="5"/>
    <g id="Rectangle_227" data-name="Rectangle 227" transform="translate(1657.121 5339) rotate(-90)" stroke="#000" stroke-width="1">
      <rect width="9" height="9" stroke="none"/>
      <rect x="0.5" y="0.5" width="8" height="8" fill="none"/>
    </g>
    <g id="Ellipse_29" data-name="Ellipse 29" transform="translate(1802.5 5418.5)" stroke="#000" stroke-width="1">
      <circle cx="5.5" cy="5.5" r="5.5" stroke="none"/>
      <circle cx="5.5" cy="5.5" r="5" fill="none"/>
    </g>
    <g id="Group_797" data-name="Group 797" transform="translate(260 45)">
      <g id="Ellipse_33" data-name="Ellipse 33" transform="translate(1496 5297.5)" stroke="#000" stroke-width="1">
        <circle cx="3.5" cy="3.5" r="3.5" stroke="none"/>
        <circle cx="3.5" cy="3.5" r="3" fill="none"/>
      </g>
      <g id="Ellipse_34" data-name="Ellipse 34" transform="translate(1506 5297.5)" stroke="#000" stroke-width="1">
        <circle cx="3.5" cy="3.5" r="3.5" stroke="none"/>
        <circle cx="3.5" cy="3.5" r="3" fill="none"/>
      </g>
      <g id="Ellipse_35" data-name="Ellipse 35" transform="translate(1516 5297.5)" stroke="#000" stroke-width="1">
        <circle cx="3.5" cy="3.5" r="3.5" stroke="none"/>
        <circle cx="3.5" cy="3.5" r="3" fill="none"/>
      </g>
      <g id="Rectangle_234" data-name="Rectangle 234" transform="translate(1493 5294)" fill="none" stroke="#000" stroke-width="1" stroke-dasharray="5">
        <rect width="83" height="54" stroke="none"/>
        <rect x="0.5" y="0.5" width="82" height="53" fill="none"/>
      </g>
    </g>
    <g id="Group_798" data-name="Group 798" transform="translate(198 8)">
      <g id="Rectangle_233" data-name="Rectangle 233" transform="translate(1493 5364)" fill="none" stroke="#000" stroke-width="1" stroke-dasharray="5">
        <rect width="83" height="54" stroke="none"/>
        <rect x="0.5" y="0.5" width="82" height="53" fill="none"/>
      </g>
      <path id="Polygon_3" data-name="Polygon 3" d="M6.5,0,13,11H0Z" transform="translate(1523.121 5387) rotate(-30)"/>
    </g>
    <g id="Rectangle_229" data-name="Rectangle 229" transform="translate(1687 5377) rotate(-90)" fill="#fff" stroke="#000" stroke-width="1">
      <rect width="9" height="9" stroke="none"/>
      <rect x="0.5" y="0.5" width="8" height="8" fill="none"/>
    </g>
    <g id="Group_799" data-name="Group 799" transform="translate(-112 -70.559)">
      <path id="Path_499" data-name="Path 499" d="M19384.941,5401.559h28.2" transform="translate(-17603)" fill="none" stroke="#000" stroke-width="1"/>
      <path id="Path_500" data-name="Path 500" d="M19384.941,5401.559h22.736" transform="translate(-17603 4)" fill="none" stroke="#000" stroke-width="1"/>
      <path id="Path_501" data-name="Path 501" d="M19384.941,5401.559h28.2" transform="translate(-17603 8)" fill="none" stroke="#000" stroke-width="1"/>
      <path id="Path_502" data-name="Path 502" d="M19384.941,5401.559h20.393" transform="translate(-17603 12)" fill="none" stroke="#000" stroke-width="1"/>
      <path id="Path_503" data-name="Path 503" d="M19384.941,5401.559h25.107" transform="translate(-17603 16)" fill="none" stroke="#000" stroke-width="1"/>
    </g>
    <g id="Group_800" data-name="Group 800" transform="translate(-4.867)">
      <path id="Path_499-2" data-name="Path 499" d="M19384.941,5401.559h17.549" transform="translate(-17581.441 34.076)" fill="none" stroke="#000" stroke-width="1"/>
      <path id="Path_500-2" data-name="Path 500" d="M19384.941,5401.559h22.736" transform="translate(-17583.441 38.076)" fill="none" stroke="#000" stroke-width="1"/>
      <path id="Path_501-2" data-name="Path 501" d="M19384.941,5401.559h17.549" transform="translate(-17581.441 42.076)" fill="none" stroke="#000" stroke-width="1"/>
      <path id="Path_502-2" data-name="Path 502" d="M19384.941,5401.559h20.393" transform="translate(-17582.441 46.076)" fill="none" stroke="#000" stroke-width="1"/>
      <path id="Path_503-2" data-name="Path 503" d="M19384.941,5401.559h14.457" transform="translate(-17579.441 50.076)" fill="none" stroke="#000" stroke-width="1"/>
    </g>
    <g id="Path_495" data-name="Path 495" transform="translate(1849.5 5312.23)">
      <path d="M 7.499910354614258 12.11647701263428 L 7.249900341033936 11.97212696075439 L -0.2500095367431641 7.64191722869873 L -0.4999995231628418 7.49757719039917 L -0.4999995231628418 7.208907127380371 L -0.4999995231628418 4.322106838226318 L -0.4999995231628418 4.032947063446045 L -0.2493695169687271 3.888726949691772 L 7.261950492858887 -0.4333829879760742 L 7.511690616607666 -0.5770829916000366 L 7.761250495910645 -0.4330529868602753 L 15.2499303817749 3.888876914978027 L 15.5 4.033196926116943 L 15.5 4.321927070617676 L 15.5 7.20872688293457 L 15.5 7.497396945953369 L 15.25001049041748 7.64173698425293 L 7.74992036819458 11.97212696075439 L 7.499910354614258 12.11647701263428 Z" stroke="none"/>
      <path d="M 7.5113205909729 -2.86102294921875e-06 L 9.5367431640625e-07 4.322106838226318 L 9.5367431640625e-07 7.208907127380371 L 7.499910354614258 11.53911685943604 L 15 7.20872688293457 L 15 4.321927070617676 L 7.5113205909729 -2.86102294921875e-06 M 7.512060642242432 -1.154163360595703 L 16 3.744466781616211 L 16 7.786067008972168 L 7.499910354614258 12.69382667541504 L -0.9999990463256836 7.786247253417969 L -0.9999990463256836 3.743786811828613 L 7.512060642242432 -1.154163360595703 Z" stroke="none" fill="#000"/>
    </g>
    <path id="Path_504" data-name="Path 504" d="M19411,5424v-97.838h-16.461V5302.3" transform="translate(-17603)" fill="none" stroke="#000" stroke-width="1" stroke-dasharray="5"/>
    <g id="Rectangle_231" data-name="Rectangle 231" transform="translate(1791.5 5308.864) rotate(-135)" fill="#fff" stroke="#000" stroke-width="1">
      <rect width="9" height="9" stroke="none"/>
      <rect x="0.5" y="0.5" width="8" height="8" fill="none"/>
    </g>
    <g id="Path_491" data-name="Path 491" transform="translate(1765.5 5507.5)" fill="#fff">
      <path d="M 7.499910354614258 12.11647701263428 L 7.249900341033936 11.97212696075439 L -0.2500095367431641 7.64191722869873 L -0.4999995231628418 7.49757719039917 L -0.4999995231628418 7.208907127380371 L -0.4999995231628418 4.322106838226318 L -0.4999995231628418 4.032947063446045 L -0.2493695169687271 3.888726949691772 L 7.261950492858887 -0.4333829879760742 L 7.511690616607666 -0.5770829916000366 L 7.761250495910645 -0.4330529868602753 L 15.2499303817749 3.888876914978027 L 15.5 4.033196926116943 L 15.5 4.321927070617676 L 15.5 7.20872688293457 L 15.5 7.497396945953369 L 15.25001049041748 7.64173698425293 L 7.74992036819458 11.97212696075439 L 7.499910354614258 12.11647701263428 Z" stroke="none"/>
      <path d="M 7.5113205909729 -2.86102294921875e-06 L 9.5367431640625e-07 4.322106838226318 L 9.5367431640625e-07 7.208907127380371 L 7.499910354614258 11.53911685943604 L 15 7.20872688293457 L 15 4.321927070617676 L 7.5113205909729 -2.86102294921875e-06 M 7.512060642242432 -1.154163360595703 L 16 3.744466781616211 L 16 7.786067008972168 L 7.499910354614258 12.69382667541504 L -0.9999990463256836 7.786247253417969 L -0.9999990463256836 3.743786811828613 L 7.512060642242432 -1.154163360595703 Z" stroke="none" fill="#000"/>
    </g>
  </g>
</svg>
