<svg xmlns="http://www.w3.org/2000/svg" xmlns:xlink="http://www.w3.org/1999/xlink" width="395" height="515.496" viewBox="0 0 395 515.496">
  <defs>
    <clipPath id="clip-path">
      <rect id="Rectangle_42" data-name="Rectangle 42" width="40" height="40" fill="none"/>
    </clipPath>
  </defs>
  <g id="diagram-WPE-design" transform="translate(-1246 -2816.907)">
    <g id="Rectangle_43" data-name="Rectangle 43" transform="translate(1246 3332.403) rotate(-90)" fill="rgba(255,255,255,0.9)" stroke="#1593ed" stroke-width="1">
      <rect width="96.372" height="395" stroke="none"/>
      <rect x="0.5" y="0.5" width="95.372" height="394" fill="none"/>
    </g>
    <g id="Rectangle_48" data-name="Rectangle 48" transform="translate(1246 3237.031) rotate(-90)" fill="rgba(255,255,255,0.9)" stroke="#1593ed" stroke-width="1">
      <rect width="96.372" height="395" stroke="none"/>
      <rect x="0.5" y="0.5" width="95.372" height="394" fill="none"/>
    </g>
    <g id="Rectangle_49" data-name="Rectangle 49" transform="translate(1384 2983.605) rotate(-90)" fill="#f3fafe" stroke="#1593ed" stroke-width="1">
      <rect width="63.605" height="118" stroke="none"/>
      <rect x="0.5" y="0.5" width="62.605" height="117" fill="none"/>
    </g>
    <g id="Rectangle_50" data-name="Rectangle 50" transform="translate(1246 2870.512) rotate(-90)" fill="rgba(255,255,255,0.9)" stroke="#1593ed" stroke-width="1">
      <rect width="53.605" height="394" stroke="none"/>
      <rect x="0.5" y="0.5" width="52.605" height="393" fill="none"/>
    </g>
    <g id="Rectangle_45" data-name="Rectangle 45" transform="translate(1246 3091.5) rotate(-90)" fill="#e7f4fd" stroke="#1593ed" stroke-width="1">
      <rect width="109" height="395" stroke="none"/>
      <rect x="0.5" y="0.5" width="108" height="394" fill="none"/>
    </g>
    <g id="Rectangle_46" data-name="Rectangle 46" transform="translate(1266 3071.477) rotate(-90)" fill="#f3fafe" stroke="#1593ed" stroke-width="1" stroke-dasharray="5">
      <rect width="69.477" height="117" stroke="none"/>
      <rect x="0.5" y="0.5" width="68.477" height="116" fill="none"/>
    </g>
    <g id="Rectangle_47" data-name="Rectangle 47" transform="translate(1504 3071.977) rotate(-90)" fill="#f3fafe" stroke="#1593ed" stroke-width="1" stroke-dasharray="5">
      <rect width="69.477" height="117" stroke="none"/>
      <rect x="0.5" y="0.5" width="68.477" height="116" fill="none"/>
    </g>
    <g id="Group_41" data-name="Group 41" transform="translate(1372.5 3255.226)">
      <path id="Path_56" data-name="Path 56" d="M17.526,28.182.982,18.665V13.237L17.7,22.886,20,24.2l.019,5.418-.981-.564v0ZM1,12.108,7.72,8.226,20,1.134,32.275,8.226l6.734,3.882L20,23.082ZM20,0,7.229,7.377.014,11.544,0,11.534v7.7L20.029,30.759,40,19.235V11.549l-.015,0-7.22-4.167Z"/>
      <path id="Path_57" data-name="Path 57" d="M17.526,59.733.982,50.216V44.788L17.7,54.437,20,55.748l.019,5.418-.981-.564v0ZM20,54.633,0,43.085v7.7L20.029,62.31,40,50.786v-7.7Z" transform="translate(0 -21.939)"/>
      <path id="Path_58" data-name="Path 58" d="M17.526,79.318.982,69.8V64.373L17.7,74.022,20,75.333l.019,5.418-.981-.564v0ZM20,74.218,0,62.67v7.7L20.029,81.895,40,70.371v-7.7Z" transform="translate(0 -31.912)"/>
    </g>
    <g id="Group_43" data-name="Group 43" transform="translate(1372.5 3168.845)">
      <g id="Group_42" data-name="Group 42" clip-path="url(#clip-path)">
        <path id="Path_59" data-name="Path 59" d="M40,23.848v-7.7H36.564a16.82,16.82,0,0,0-2.135-5.134l2.434-2.434L31.421,3.131,28.987,5.566a16.932,16.932,0,0,0-5.134-2.13V0h-7.7V3.436a16.96,16.96,0,0,0-5.139,2.13L8.579,3.131,3.136,8.579l2.434,2.434a16.932,16.932,0,0,0-2.13,5.134H0v7.7H3.44a16.809,16.809,0,0,0,2.13,5.134L3.136,31.416l5.443,5.448,2.434-2.434a16.96,16.96,0,0,0,5.139,2.13V40h7.7V36.56a16.932,16.932,0,0,0,5.134-2.13l2.434,2.434,5.443-5.448-2.429-2.429a16.96,16.96,0,0,0,2.13-5.139Zm-11.534,0a9.273,9.273,0,0,1-4.613,4.609,6.236,6.236,0,0,1-.589.25,9.338,9.338,0,0,1-6.528,0c-.2-.074-.393-.157-.584-.245a9.3,9.3,0,0,1-4.613-4.613c-.088-.191-.172-.388-.245-.589a9.324,9.324,0,0,1,0-6.523,6.235,6.235,0,0,1,.25-.589,9.273,9.273,0,0,1,4.609-4.613c.191-.088.383-.172.584-.245a9.338,9.338,0,0,1,6.528,0,6.235,6.235,0,0,1,.589.25,9.263,9.263,0,0,1,4.609,4.609,5.14,5.14,0,0,1,.245.589A9.128,9.128,0,0,1,29.3,20a9.233,9.233,0,0,1-.589,3.264c-.074.2-.157.393-.245.584"/>
      </g>
    </g>
    <text id="Hardware" transform="translate(1422.5 3270.217)" font-size="16" font-family="IBMPlexSans-Bold, IBM Plex Sans" font-weight="700"><tspan x="0" y="16">Hardware</tspan></text>
    <text id="Operating_System" data-name="Operating System" transform="translate(1422.5 3178.845)" font-size="16" font-family="IBMPlexSans-Bold, IBM Plex Sans" font-weight="700"><tspan x="0" y="16">Operating System</tspan></text>
    <text id="Cog" transform="translate(1430 2957)" font-size="16" font-family="IBMPlexSans-Bold, IBM Plex Sans" font-weight="700"><tspan x="0" y="0">Cog</tspan></text>
    <text id="Application" transform="translate(1400 2849.709)" font-size="16" font-family="IBMPlexSans-Bold, IBM Plex Sans" font-weight="700"><tspan x="0" y="0">Application</tspan></text>
    <text id="Backend" transform="translate(1282 3027)" font-size="16" font-family="IBMPlexSans-Bold, IBM Plex Sans" font-weight="700"><tspan x="-32" y="16">Backend</tspan></text>
    <text id="WebKit" transform="translate(1520 3027)" font-size="16" font-family="IBMPlexSans-Bold, IBM Plex Sans" font-weight="700"><tspan x="-27" y="16">WebKit</tspan></text>
    <g id="Group_44" data-name="Group 44" transform="translate(0 39)">
      <path id="Path_60" data-name="Path 60" d="M18784.646,2877.461l10,10,10-10" transform="translate(-17350.146 13.051)" fill="none" stroke="#000" stroke-width="1"/>
      <path id="Path_61" data-name="Path 61" d="M19067.5,2831.512v68.538" transform="translate(-17623)" fill="none" stroke="#000" stroke-width="1"/>
      <g id="Ellipse_27" data-name="Ellipse 27" transform="translate(1439 2825)" fill="#fff" stroke="#000" stroke-width="1">
        <circle cx="5.5" cy="5.5" r="5.5" stroke="none"/>
        <circle cx="5.5" cy="5.5" r="5" fill="none"/>
      </g>
    </g>
    <g id="Group_47" data-name="Group 47" transform="translate(0 259.977)">
      <path id="Path_60-2" data-name="Path 60" d="M18784.646,2877.461l10,10,10-10" transform="translate(-17350.146 13.051)" fill="none" stroke="#000" stroke-width="1"/>
      <path id="Path_61-2" data-name="Path 61" d="M19067.5,2831.512v68.538" transform="translate(-17623)" fill="none" stroke="#000" stroke-width="1"/>
      <g id="Ellipse_27-2" data-name="Ellipse 27" transform="translate(1439 2825)" fill="#fff" stroke="#000" stroke-width="1">
        <circle cx="5.5" cy="5.5" r="5.5" stroke="none"/>
        <circle cx="5.5" cy="5.5" r="5" fill="none"/>
      </g>
    </g>
    <g id="Group_48" data-name="Group 48" transform="translate(-124.5 249.977)">
      <path id="Path_60-3" data-name="Path 60" d="M18784.646,2877.461l10,10,10-10" transform="translate(-17350.146 23.051)" fill="none" stroke="#000" stroke-width="1"/>
      <path id="Path_61-3" data-name="Path 61" d="M19067.5,2831.512v78.538" transform="translate(-17623 0)" fill="none" stroke="#000" stroke-width="1"/>
      <g id="Ellipse_27-3" data-name="Ellipse 27" transform="translate(1439 2825)" fill="#fff" stroke="#000" stroke-width="1">
        <circle cx="5.5" cy="5.5" r="5.5" stroke="none"/>
        <circle cx="5.5" cy="5.5" r="5" fill="none"/>
      </g>
    </g>
    <g id="Group_805" data-name="Group 805" transform="translate(118.5 249.977)">
      <path id="Path_60-4" data-name="Path 60" d="M18784.646,2877.461l10,10,10-10" transform="translate(-17350.146 23.051)" fill="none" stroke="#000" stroke-width="1"/>
      <path id="Path_61-4" data-name="Path 61" d="M19067.5,2831.512v78.538" transform="translate(-17623 0)" fill="none" stroke="#000" stroke-width="1"/>
      <g id="Ellipse_27-4" data-name="Ellipse 27" transform="translate(1439 2825)" fill="#fff" stroke="#000" stroke-width="1">
        <circle cx="5.5" cy="5.5" r="5.5" stroke="none"/>
        <circle cx="5.5" cy="5.5" r="5" fill="none"/>
      </g>
    </g>
    <g id="Group_45" data-name="Group 45" transform="translate(1310 2864)">
      <path id="Path_60-5" data-name="Path 60" d="M18784.646,2877.461l10,10,10-10" transform="translate(-18784.646 -2729.804)" fill="none" stroke="#000" stroke-width="1"/>
      <path id="Path_61-5" data-name="Path 61" d="M19067.5,2821.511v151.7" transform="translate(-19057.5 -2816.012)" fill="none" stroke="#000" stroke-width="1"/>
      <g id="Ellipse_27-5" data-name="Ellipse 27" transform="translate(4.5)" fill="#fff" stroke="#000" stroke-width="1">
        <circle cx="5.5" cy="5.5" r="5.5" stroke="none"/>
        <circle cx="5.5" cy="5.5" r="5" fill="none"/>
      </g>
    </g>
    <g id="Group_46" data-name="Group 46" transform="translate(1552.5 2864)">
      <path id="Path_60-6" data-name="Path 60" d="M18784.646,2877.461l10,10,10-10" transform="translate(-18784.646 -2729.804)" fill="none" stroke="#000" stroke-width="1"/>
      <path id="Path_61-6" data-name="Path 61" d="M19067.5,2821.511v151.7" transform="translate(-19057.5 -2816.012)" fill="none" stroke="#000" stroke-width="1"/>
      <g id="Ellipse_27-6" data-name="Ellipse 27" transform="translate(4.5)" fill="#fff" stroke="#000" stroke-width="1">
        <circle cx="5.5" cy="5.5" r="5.5" stroke="none"/>
        <circle cx="5.5" cy="5.5" r="5" fill="none"/>
      </g>
    </g>
  </g>
</svg>
